# MagicaVoxel @ Ephtracy

# material
mtllib tower2.mtl
usemtl palette

# normals
vn -1 0 0
vn 1 0 0
vn 0 0 1
vn 0 0 -1
vn 0 -1 0
vn 0 1 0

# texcoords
vt 0.818359 0.5
vt 0.869141 0.5
vt 0.888672 0.5

# verts
v -2 0 5
v -2 0 1
v -2 2 5
v -2 2 1
v -2 7 5
v -2 7 1
v -2 9 5
v -2 9 1
v -1 0 6
v -1 0 5
v -1 0 1
v -1 0 -0
v -1 2 6
v -1 2 5
v -1 2 4
v -1 2 2
v -1 2 1
v -1 2 -0
v -1 7 6
v -1 7 5
v -1 7 4
v -1 7 2
v -1 7 1
v -1 7 -0
v -1 9 6
v -1 9 5
v -1 9 1
v -1 9 -0
v 0 0 7
v 0 0 6
v 0 0 -0
v 0 0 -1
v 0 2 7
v 0 2 6
v 0 2 5
v 0 2 1
v 0 2 -0
v 0 2 -1
v 0 7 7
v 0 7 6
v 0 7 5
v 0 7 1
v 0 7 -0
v 0 7 -1
v 0 9 7
v 0 9 6
v 0 9 -0
v 0 9 -1
v 1 0 8
v 1 0 7
v 1 0 -1
v 1 0 -2
v 1 2 8
v 1 2 7
v 1 2 6
v 1 2 -0
v 1 2 -1
v 1 2 -2
v 1 7 8
v 1 7 7
v 1 7 6
v 1 7 -0
v 1 7 -1
v 1 7 -2
v 1 9 8
v 1 9 7
v 1 9 -1
v 1 9 -2
v 4 0 7
v 4 0 6
v 4 0 -0
v 4 0 -1
v 4 2 7
v 4 2 6
v 4 2 -0
v 4 2 -1
v 4 7 7
v 4 7 6
v 4 7 -0
v 4 7 -1
v 5 0 6
v 5 0 5
v 5 0 1
v 5 0 -0
v 5 2 6
v 5 2 5
v 5 2 1
v 5 2 -0
v 5 7 6
v 5 7 5
v 5 7 1
v 5 7 -0
v 5 8 6
v 5 8 5
v 5 8 1
v 5 8 -0
v 6 0 5
v 6 0 4
v 6 0 2
v 6 0 1
v 6 2 5
v 6 2 4
v 6 2 2
v 6 2 1
v 6 7 5
v 6 7 4
v 6 7 2
v 6 7 1
v 6 8 5
v 6 8 1
v 7 0 4
v 7 0 2
v 7 2 4
v 7 2 2
v -1 0 4
v -1 0 2
v -1 2 4
v -1 2 2
v 0 0 5
v 0 0 4
v 0 0 2
v 0 0 1
v 0 1 1
v 0 2 5
v 0 2 4
v 0 2 2
v 0 2 1
v 0 7 5
v 0 7 4
v 0 7 2
v 0 7 1
v 0 8 5
v 0 8 1
v 1 0 6
v 1 0 5
v 1 0 1
v 1 0 -0
v 1 1 1
v 1 1 -0
v 1 2 6
v 1 2 5
v 1 2 1
v 1 2 -0
v 1 7 6
v 1 7 5
v 1 7 1
v 1 7 -0
v 1 8 6
v 1 8 5
v 1 8 1
v 1 8 -0
v 2 0 7
v 2 0 6
v 2 0 -0
v 2 0 -1
v 2 2 7
v 2 2 6
v 2 2 -0
v 2 2 -1
v 2 7 7
v 2 7 6
v 2 7 -0
v 2 7 -1
v 5 0 8
v 5 0 7
v 5 0 -1
v 5 0 -2
v 5 2 8
v 5 2 7
v 5 2 6
v 5 2 -0
v 5 2 -1
v 5 2 -2
v 5 7 8
v 5 7 7
v 5 7 6
v 5 7 -0
v 5 7 -1
v 5 7 -2
v 5 9 8
v 5 9 7
v 5 9 -1
v 5 9 -2
v 6 0 7
v 6 0 6
v 6 0 -0
v 6 0 -1
v 6 2 7
v 6 2 6
v 6 2 5
v 6 2 1
v 6 2 -0
v 6 2 -1
v 6 7 7
v 6 7 6
v 6 7 5
v 6 7 1
v 6 7 -0
v 6 7 -1
v 6 9 7
v 6 9 6
v 6 9 -0
v 6 9 -1
v 7 0 6
v 7 0 5
v 7 0 1
v 7 0 -0
v 7 2 6
v 7 2 5
v 7 2 4
v 7 2 2
v 7 2 1
v 7 2 -0
v 7 7 6
v 7 7 5
v 7 7 4
v 7 7 2
v 7 7 1
v 7 7 -0
v 7 9 6
v 7 9 5
v 7 9 1
v 7 9 -0
v 8 0 5
v 8 0 1
v 8 2 5
v 8 2 1
v 8 7 5
v 8 7 1
v 8 9 5
v 8 9 1
v 1 0 8
v 1 2 8
v 1 7 8
v 1 9 8
v 5 0 8
v 5 2 8
v 5 7 8
v 5 9 8
v 0 0 7
v 0 2 7
v 0 7 7
v 0 9 7
v 1 0 7
v 1 2 7
v 1 7 7
v 1 9 7
v 2 2 7
v 2 7 7
v 4 2 7
v 4 7 7
v 5 0 7
v 5 2 7
v 5 7 7
v 5 9 7
v 6 0 7
v 6 2 7
v 6 7 7
v 6 9 7
v -1 0 6
v -1 2 6
v -1 7 6
v -1 9 6
v 0 0 6
v 0 2 6
v 0 7 6
v 0 9 6
v 1 2 6
v 1 7 6
v 5 2 6
v 5 7 6
v 6 0 6
v 6 2 6
v 6 7 6
v 6 9 6
v 7 0 6
v 7 2 6
v 7 7 6
v 7 9 6
v -2 0 5
v -2 2 5
v -2 7 5
v -2 9 5
v -1 0 5
v -1 2 5
v -1 7 5
v -1 9 5
v 0 2 5
v 0 7 5
v 6 2 5
v 6 7 5
v 7 0 5
v 7 2 5
v 7 7 5
v 7 9 5
v 8 0 5
v 8 2 5
v 8 7 5
v 8 9 5
v -1 0 2
v -1 2 2
v -1 7 2
v 0 0 2
v 0 2 2
v 0 7 2
v 6 0 2
v 6 2 2
v 6 7 2
v 7 0 2
v 7 2 2
v 7 7 2
v 0 0 1
v 0 1 1
v 0 2 1
v 0 7 1
v 0 8 1
v 1 0 1
v 1 1 1
v 1 2 1
v 1 7 1
v 1 8 1
v 5 0 1
v 5 2 1
v 5 7 1
v 5 8 1
v 6 0 1
v 6 2 1
v 6 7 1
v 6 8 1
v 1 0 -0
v 1 1 -0
v 1 2 -0
v 1 7 -0
v 1 8 -0
v 2 0 -0
v 2 2 -0
v 2 7 -0
v 4 0 -0
v 4 2 -0
v 4 7 -0
v 5 0 -0
v 5 2 -0
v 5 7 -0
v 5 8 -0
v 2 0 -1
v 2 2 -1
v 4 0 -1
v 4 2 -1
v 2 0 7
v 2 2 7
v 4 0 7
v 4 2 7
v 1 0 6
v 1 2 6
v 1 7 6
v 1 8 6
v 2 0 6
v 2 2 6
v 2 7 6
v 4 0 6
v 4 2 6
v 4 7 6
v 5 0 6
v 5 2 6
v 5 7 6
v 5 8 6
v 0 0 5
v 0 2 5
v 0 7 5
v 0 8 5
v 1 0 5
v 1 2 5
v 1 7 5
v 1 8 5
v 5 0 5
v 5 2 5
v 5 7 5
v 5 8 5
v 6 0 5
v 6 2 5
v 6 7 5
v 6 8 5
v -1 0 4
v -1 2 4
v -1 7 4
v 0 0 4
v 0 2 4
v 0 7 4
v 6 0 4
v 6 2 4
v 6 7 4
v 7 0 4
v 7 2 4
v 7 7 4
v -2 0 1
v -2 2 1
v -2 7 1
v -2 9 1
v -1 0 1
v -1 2 1
v -1 7 1
v -1 9 1
v 0 2 1
v 0 7 1
v 6 2 1
v 6 7 1
v 7 0 1
v 7 2 1
v 7 7 1
v 7 9 1
v 8 0 1
v 8 2 1
v 8 7 1
v 8 9 1
v -1 0 -0
v -1 2 -0
v -1 7 -0
v -1 9 -0
v 0 0 -0
v 0 2 -0
v 0 7 -0
v 0 9 -0
v 1 2 -0
v 1 7 -0
v 5 2 -0
v 5 7 -0
v 6 0 -0
v 6 2 -0
v 6 7 -0
v 6 9 -0
v 7 0 -0
v 7 2 -0
v 7 7 -0
v 7 9 -0
v 0 0 -1
v 0 2 -1
v 0 7 -1
v 0 9 -1
v 1 0 -1
v 1 2 -1
v 1 7 -1
v 1 9 -1
v 2 2 -1
v 2 7 -1
v 4 2 -1
v 4 7 -1
v 5 0 -1
v 5 2 -1
v 5 7 -1
v 5 9 -1
v 6 0 -1
v 6 2 -1
v 6 7 -1
v 6 9 -1
v 1 0 -2
v 1 2 -2
v 1 7 -2
v 1 9 -2
v 5 0 -2
v 5 2 -2
v 5 7 -2
v 5 9 -2
v 1 0 8
v 5 0 8
v 0 0 7
v 1 0 7
v 2 0 7
v 4 0 7
v 5 0 7
v 6 0 7
v -1 0 6
v 0 0 6
v 1 0 6
v 2 0 6
v 4 0 6
v 5 0 6
v 6 0 6
v 7 0 6
v -2 0 5
v -1 0 5
v 0 0 5
v 1 0 5
v 5 0 5
v 6 0 5
v 7 0 5
v 8 0 5
v -1 0 4
v 0 0 4
v 6 0 4
v 7 0 4
v -1 0 2
v 0 0 2
v 6 0 2
v 7 0 2
v -2 0 1
v -1 0 1
v 0 0 1
v 1 0 1
v 5 0 1
v 6 0 1
v 7 0 1
v 8 0 1
v -1 0 -0
v 0 0 -0
v 1 0 -0
v 2 0 -0
v 4 0 -0
v 5 0 -0
v 6 0 -0
v 7 0 -0
v 0 0 -1
v 1 0 -1
v 2 0 -1
v 4 0 -1
v 5 0 -1
v 6 0 -1
v 1 0 -2
v 5 0 -2
v 1 7 8
v 5 7 8
v 0 7 7
v 1 7 7
v 2 7 7
v 4 7 7
v 5 7 7
v 6 7 7
v -1 7 6
v 0 7 6
v 1 7 6
v 2 7 6
v 4 7 6
v 5 7 6
v 6 7 6
v 7 7 6
v -2 7 5
v -1 7 5
v 0 7 5
v 6 7 5
v 7 7 5
v 8 7 5
v -1 7 4
v 0 7 4
v 6 7 4
v 7 7 4
v -1 7 2
v 0 7 2
v 6 7 2
v 7 7 2
v -2 7 1
v -1 7 1
v 0 7 1
v 6 7 1
v 7 7 1
v 8 7 1
v -1 7 -0
v 0 7 -0
v 1 7 -0
v 2 7 -0
v 4 7 -0
v 5 7 -0
v 6 7 -0
v 7 7 -0
v 0 7 -1
v 1 7 -1
v 2 7 -1
v 4 7 -1
v 5 7 -1
v 6 7 -1
v 1 7 -2
v 5 7 -2
v 1 8 6
v 5 8 6
v 0 8 5
v 1 8 5
v 5 8 5
v 6 8 5
v 0 8 1
v 1 8 1
v 5 8 1
v 6 8 1
v 1 8 -0
v 5 8 -0
v 1 2 8
v 5 2 8
v 0 2 7
v 1 2 7
v 2 2 7
v 4 2 7
v 5 2 7
v 6 2 7
v -1 2 6
v 0 2 6
v 1 2 6
v 5 2 6
v 6 2 6
v 7 2 6
v -2 2 5
v -1 2 5
v 0 2 5
v 6 2 5
v 7 2 5
v 8 2 5
v -1 2 4
v 7 2 4
v -1 2 2
v 7 2 2
v -2 2 1
v -1 2 1
v 0 2 1
v 6 2 1
v 7 2 1
v 8 2 1
v -1 2 -0
v 0 2 -0
v 1 2 -0
v 5 2 -0
v 6 2 -0
v 7 2 -0
v 0 2 -1
v 1 2 -1
v 2 2 -1
v 4 2 -1
v 5 2 -1
v 6 2 -1
v 1 2 -2
v 5 2 -2
v 1 9 8
v 5 9 8
v 0 9 7
v 1 9 7
v 5 9 7
v 6 9 7
v -1 9 6
v 0 9 6
v 6 9 6
v 7 9 6
v -2 9 5
v -1 9 5
v 7 9 5
v 8 9 5
v -2 9 1
v -1 9 1
v 7 9 1
v 8 9 1
v -1 9 -0
v 0 9 -0
v 6 9 -0
v 7 9 -0
v 0 9 -1
v 1 9 -1
v 5 9 -1
v 6 9 -1
v 1 9 -2
v 5 9 -2

# faces
f 3/3/1 2/3/1 1/3/1
f 4/3/1 2/3/1 3/3/1
f 7/3/1 6/3/1 5/3/1
f 8/3/1 6/3/1 7/3/1
f 13/3/1 10/3/1 9/3/1
f 14/3/1 10/3/1 13/3/1
f 17/3/1 12/3/1 11/3/1
f 18/3/1 12/3/1 17/3/1
f 20/2/1 15/2/1 14/2/1
f 21/2/1 15/2/1 20/2/1
f 22/2/1 17/2/1 16/2/1
f 23/2/1 17/2/1 22/2/1
f 25/3/1 20/3/1 19/3/1
f 26/3/1 20/3/1 25/3/1
f 27/3/1 24/3/1 23/3/1
f 28/3/1 24/3/1 27/3/1
f 33/3/1 30/3/1 29/3/1
f 34/3/1 30/3/1 33/3/1
f 37/3/1 32/3/1 31/3/1
f 38/3/1 32/3/1 37/3/1
f 40/2/1 35/2/1 34/2/1
f 41/2/1 35/2/1 40/2/1
f 42/2/1 37/2/1 36/2/1
f 43/2/1 37/2/1 42/2/1
f 45/3/1 40/3/1 39/3/1
f 46/3/1 40/3/1 45/3/1
f 47/3/1 44/3/1 43/3/1
f 48/3/1 44/3/1 47/3/1
f 53/3/1 50/3/1 49/3/1
f 54/3/1 50/3/1 53/3/1
f 57/3/1 52/3/1 51/3/1
f 58/3/1 52/3/1 57/3/1
f 60/2/1 55/2/1 54/2/1
f 61/2/1 55/2/1 60/2/1
f 62/2/1 57/2/1 56/2/1
f 63/2/1 57/2/1 62/2/1
f 65/3/1 60/3/1 59/3/1
f 66/3/1 60/3/1 65/3/1
f 67/3/1 64/3/1 63/3/1
f 68/3/1 64/3/1 67/3/1
f 73/3/1 70/3/1 69/3/1
f 74/3/1 70/3/1 73/3/1
f 75/3/1 72/3/1 71/3/1
f 76/3/1 72/3/1 75/3/1
f 77/2/1 74/2/1 73/2/1
f 78/2/1 74/2/1 77/2/1
f 79/2/1 76/2/1 75/2/1
f 80/2/1 76/2/1 79/2/1
f 85/3/1 82/3/1 81/3/1
f 86/3/1 82/3/1 85/3/1
f 87/3/1 84/3/1 83/3/1
f 88/3/1 84/3/1 87/3/1
f 89/2/1 86/2/1 85/2/1
f 90/2/1 86/2/1 89/2/1
f 91/2/1 88/2/1 87/2/1
f 92/2/1 88/2/1 91/2/1
f 93/3/1 90/3/1 89/3/1
f 94/3/1 90/3/1 93/3/1
f 95/3/1 92/3/1 91/3/1
f 96/3/1 92/3/1 95/3/1
f 101/3/1 98/3/1 97/3/1
f 102/3/1 98/3/1 101/3/1
f 103/3/1 100/3/1 99/3/1
f 104/3/1 100/3/1 103/3/1
f 105/2/1 102/2/1 101/2/1
f 106/2/1 102/2/1 105/2/1
f 107/2/1 104/2/1 103/2/1
f 108/2/1 104/2/1 107/2/1
f 109/3/1 106/3/1 105/3/1
f 109/3/1 107/3/1 106/3/1
f 109/3/1 108/3/1 107/3/1
f 110/3/1 108/3/1 109/3/1
f 113/3/1 112/3/1 111/3/1
f 114/3/1 112/3/1 113/3/1
f 115/3/2 116/3/2 117/3/2
f 117/3/2 116/3/2 118/3/2
f 121/3/2 122/3/2 123/3/2
f 119/3/2 120/3/2 124/3/2
f 124/3/2 120/3/2 125/3/2
f 121/3/2 123/3/2 126/3/2
f 126/3/2 123/3/2 127/3/2
f 124/2/2 125/2/2 128/2/2
f 128/2/2 125/2/2 129/2/2
f 126/2/2 127/2/2 130/2/2
f 130/2/2 127/2/2 131/2/2
f 128/3/2 129/3/2 132/3/2
f 129/3/2 130/3/2 132/3/2
f 130/3/2 131/3/2 132/3/2
f 132/3/2 131/3/2 133/3/2
f 136/1/2 137/1/2 138/1/2
f 138/1/2 137/1/2 139/1/2
f 134/3/2 135/3/2 140/3/2
f 140/3/2 135/3/2 141/3/2
f 138/3/2 139/3/2 142/3/2
f 142/3/2 139/3/2 143/3/2
f 140/2/2 141/2/2 144/2/2
f 144/2/2 141/2/2 145/2/2
f 142/2/2 143/2/2 146/2/2
f 146/2/2 143/2/2 147/2/2
f 144/3/2 145/3/2 148/3/2
f 148/3/2 145/3/2 149/3/2
f 146/3/2 147/3/2 150/3/2
f 150/3/2 147/3/2 151/3/2
f 152/3/2 153/3/2 156/3/2
f 156/3/2 153/3/2 157/3/2
f 154/3/2 155/3/2 158/3/2
f 158/3/2 155/3/2 159/3/2
f 156/2/2 157/2/2 160/2/2
f 160/2/2 157/2/2 161/2/2
f 158/2/2 159/2/2 162/2/2
f 162/2/2 159/2/2 163/2/2
f 164/3/2 165/3/2 168/3/2
f 168/3/2 165/3/2 169/3/2
f 166/3/2 167/3/2 172/3/2
f 172/3/2 167/3/2 173/3/2
f 169/2/2 170/2/2 175/2/2
f 175/2/2 170/2/2 176/2/2
f 171/2/2 172/2/2 177/2/2
f 177/2/2 172/2/2 178/2/2
f 174/3/2 175/3/2 180/3/2
f 180/3/2 175/3/2 181/3/2
f 178/3/2 179/3/2 182/3/2
f 182/3/2 179/3/2 183/3/2
f 184/3/2 185/3/2 188/3/2
f 188/3/2 185/3/2 189/3/2
f 186/3/2 187/3/2 192/3/2
f 192/3/2 187/3/2 193/3/2
f 189/2/2 190/2/2 195/2/2
f 195/2/2 190/2/2 196/2/2
f 191/2/2 192/2/2 197/2/2
f 197/2/2 192/2/2 198/2/2
f 194/3/2 195/3/2 200/3/2
f 200/3/2 195/3/2 201/3/2
f 198/3/2 199/3/2 202/3/2
f 202/3/2 199/3/2 203/3/2
f 204/3/2 205/3/2 208/3/2
f 208/3/2 205/3/2 209/3/2
f 206/3/2 207/3/2 212/3/2
f 212/3/2 207/3/2 213/3/2
f 209/2/2 210/2/2 215/2/2
f 215/2/2 210/2/2 216/2/2
f 211/2/2 212/2/2 217/2/2
f 217/2/2 212/2/2 218/2/2
f 214/3/2 215/3/2 220/3/2
f 220/3/2 215/3/2 221/3/2
f 218/3/2 219/3/2 222/3/2
f 222/3/2 219/3/2 223/3/2
f 224/3/2 225/3/2 226/3/2
f 226/3/2 225/3/2 227/3/2
f 228/3/2 229/3/2 230/3/2
f 230/3/2 229/3/2 231/3/2
f 236/3/3 233/3/3 232/3/3
f 237/3/3 233/3/3 236/3/3
f 238/3/3 235/3/3 234/3/3
f 239/3/3 235/3/3 238/3/3
f 244/3/3 241/3/3 240/3/3
f 245/3/3 241/3/3 244/3/3
f 246/3/3 243/3/3 242/3/3
f 247/3/3 243/3/3 246/3/3
f 248/2/3 246/2/3 245/2/3
f 249/2/3 246/2/3 248/2/3
f 253/2/3 251/2/3 250/2/3
f 254/2/3 251/2/3 253/2/3
f 256/3/3 253/3/3 252/3/3
f 257/3/3 253/3/3 256/3/3
f 258/3/3 255/3/3 254/3/3
f 259/3/3 255/3/3 258/3/3
f 264/3/3 261/3/3 260/3/3
f 265/3/3 261/3/3 264/3/3
f 266/3/3 263/3/3 262/3/3
f 267/3/3 263/3/3 266/3/3
f 268/2/3 266/2/3 265/2/3
f 269/2/3 266/2/3 268/2/3
f 273/2/3 271/2/3 270/2/3
f 274/2/3 271/2/3 273/2/3
f 276/3/3 273/3/3 272/3/3
f 277/3/3 273/3/3 276/3/3
f 278/3/3 275/3/3 274/3/3
f 279/3/3 275/3/3 278/3/3
f 284/3/3 281/3/3 280/3/3
f 285/3/3 281/3/3 284/3/3
f 286/3/3 283/3/3 282/3/3
f 287/3/3 283/3/3 286/3/3
f 288/2/3 286/2/3 285/2/3
f 289/2/3 286/2/3 288/2/3
f 293/2/3 291/2/3 290/2/3
f 294/2/3 291/2/3 293/2/3
f 296/3/3 293/3/3 292/3/3
f 297/3/3 293/3/3 296/3/3
f 298/3/3 295/3/3 294/3/3
f 299/3/3 295/3/3 298/3/3
f 303/3/3 301/3/3 300/3/3
f 304/2/3 302/2/3 301/2/3
f 304/3/3 301/3/3 303/3/3
f 305/2/3 302/2/3 304/2/3
f 309/3/3 307/3/3 306/3/3
f 310/2/3 308/2/3 307/2/3
f 310/3/3 307/3/3 309/3/3
f 311/2/3 308/2/3 310/2/3
f 317/1/3 313/1/3 312/1/3
f 318/3/3 314/3/3 313/3/3
f 318/1/3 313/1/3 317/1/3
f 319/2/3 315/2/3 314/2/3
f 319/3/3 314/3/3 318/3/3
f 320/3/3 316/3/3 315/3/3
f 320/2/3 315/2/3 319/2/3
f 321/3/3 316/3/3 320/3/3
f 326/3/3 323/3/3 322/3/3
f 327/2/3 324/2/3 323/2/3
f 327/3/3 323/3/3 326/3/3
f 328/3/3 325/3/3 324/3/3
f 328/2/3 324/2/3 327/2/3
f 329/3/3 325/3/3 328/3/3
f 335/3/3 331/3/3 330/3/3
f 335/3/3 332/3/3 331/3/3
f 336/2/3 333/2/3 332/2/3
f 336/3/3 332/3/3 335/3/3
f 337/3/3 334/3/3 333/3/3
f 337/2/3 333/2/3 336/2/3
f 340/3/3 334/3/3 337/3/3
f 341/3/3 339/3/3 338/3/3
f 342/2/3 340/2/3 339/2/3
f 342/3/3 339/3/3 341/3/3
f 343/3/3 334/3/3 340/3/3
f 343/2/3 340/2/3 342/2/3
f 344/3/3 334/3/3 343/3/3
f 347/3/3 346/3/3 345/3/3
f 348/3/3 346/3/3 347/3/3
f 349/3/4 350/3/4 351/3/4
f 351/3/4 350/3/4 352/3/4
f 353/3/4 354/3/4 357/3/4
f 354/2/4 355/2/4 358/2/4
f 357/3/4 354/3/4 358/3/4
f 355/3/4 356/3/4 359/3/4
f 358/2/4 355/2/4 359/2/4
f 359/3/4 356/3/4 362/3/4
f 360/3/4 361/3/4 363/3/4
f 361/2/4 362/2/4 364/2/4
f 363/3/4 361/3/4 364/3/4
f 362/3/4 356/3/4 365/3/4
f 364/2/4 362/2/4 365/2/4
f 365/3/4 356/3/4 366/3/4
f 367/3/4 368/3/4 371/3/4
f 368/2/4 369/2/4 372/2/4
f 371/3/4 368/3/4 372/3/4
f 369/3/4 370/3/4 373/3/4
f 372/2/4 369/2/4 373/2/4
f 373/3/4 370/3/4 374/3/4
f 375/3/4 376/3/4 379/3/4
f 376/2/4 377/2/4 380/2/4
f 379/3/4 376/3/4 380/3/4
f 377/3/4 378/3/4 381/3/4
f 380/2/4 377/2/4 381/2/4
f 381/3/4 378/3/4 382/3/4
f 383/3/4 384/3/4 386/3/4
f 384/2/4 385/2/4 387/2/4
f 386/3/4 384/3/4 387/3/4
f 387/2/4 385/2/4 388/2/4
f 389/3/4 390/3/4 392/3/4
f 390/2/4 391/2/4 393/2/4
f 392/3/4 390/3/4 393/3/4
f 393/2/4 391/2/4 394/2/4
f 395/3/4 396/3/4 399/3/4
f 399/3/4 396/3/4 400/3/4
f 397/3/4 398/3/4 401/3/4
f 401/3/4 398/3/4 402/3/4
f 400/2/4 401/2/4 403/2/4
f 403/2/4 401/2/4 404/2/4
f 405/2/4 406/2/4 408/2/4
f 408/2/4 406/2/4 409/2/4
f 407/3/4 408/3/4 411/3/4
f 411/3/4 408/3/4 412/3/4
f 409/3/4 410/3/4 413/3/4
f 413/3/4 410/3/4 414/3/4
f 415/3/4 416/3/4 419/3/4
f 419/3/4 416/3/4 420/3/4
f 417/3/4 418/3/4 421/3/4
f 421/3/4 418/3/4 422/3/4
f 420/2/4 421/2/4 423/2/4
f 423/2/4 421/2/4 424/2/4
f 425/2/4 426/2/4 428/2/4
f 428/2/4 426/2/4 429/2/4
f 427/3/4 428/3/4 431/3/4
f 431/3/4 428/3/4 432/3/4
f 429/3/4 430/3/4 433/3/4
f 433/3/4 430/3/4 434/3/4
f 435/3/4 436/3/4 439/3/4
f 439/3/4 436/3/4 440/3/4
f 437/3/4 438/3/4 441/3/4
f 441/3/4 438/3/4 442/3/4
f 440/2/4 441/2/4 443/2/4
f 443/2/4 441/2/4 444/2/4
f 445/2/4 446/2/4 448/2/4
f 448/2/4 446/2/4 449/2/4
f 447/3/4 448/3/4 451/3/4
f 451/3/4 448/3/4 452/3/4
f 449/3/4 450/3/4 453/3/4
f 453/3/4 450/3/4 454/3/4
f 455/3/4 456/3/4 459/3/4
f 459/3/4 456/3/4 460/3/4
f 457/3/4 458/3/4 461/3/4
f 461/3/4 458/3/4 462/3/4
f 466/3/5 464/3/5 463/3/5
f 467/3/5 464/3/5 466/3/5
f 468/3/5 464/3/5 467/3/5
f 469/3/5 464/3/5 468/3/5
f 472/3/5 466/3/5 465/3/5
f 472/3/5 467/3/5 466/3/5
f 473/3/5 467/3/5 472/3/5
f 474/3/5 467/3/5 473/3/5
f 475/3/5 469/3/5 468/3/5
f 475/3/5 470/3/5 469/3/5
f 476/3/5 470/3/5 475/3/5
f 477/3/5 470/3/5 476/3/5
f 480/3/5 473/3/5 472/3/5
f 480/3/5 472/3/5 471/3/5
f 481/3/5 473/3/5 480/3/5
f 482/3/5 473/3/5 481/3/5
f 483/3/5 478/3/5 477/3/5
f 483/3/5 477/3/5 476/3/5
f 484/3/5 478/3/5 483/3/5
f 485/3/5 478/3/5 484/3/5
f 487/3/5 481/3/5 480/3/5
f 487/3/5 480/3/5 479/3/5
f 488/3/5 481/3/5 487/3/5
f 489/3/5 486/3/5 485/3/5
f 489/3/5 485/3/5 484/3/5
f 490/3/5 486/3/5 489/3/5
f 491/3/5 487/3/5 479/3/5
f 494/3/5 486/3/5 490/3/5
f 495/3/5 492/3/5 491/3/5
f 495/3/5 491/3/5 479/3/5
f 496/3/5 492/3/5 495/3/5
f 497/3/5 492/3/5 496/3/5
f 500/3/5 494/3/5 493/3/5
f 501/3/5 486/3/5 494/3/5
f 501/3/5 494/3/5 500/3/5
f 502/3/5 486/3/5 501/3/5
f 503/3/5 497/3/5 496/3/5
f 504/1/5 498/1/5 497/1/5
f 504/3/5 497/3/5 503/3/5
f 505/1/5 498/1/5 504/1/5
f 508/3/5 500/3/5 499/3/5
f 508/3/5 501/3/5 500/3/5
f 509/3/5 501/3/5 508/3/5
f 510/3/5 501/3/5 509/3/5
f 511/3/5 506/3/5 505/3/5
f 511/3/5 505/3/5 504/3/5
f 512/3/5 506/3/5 511/3/5
f 513/3/5 506/3/5 512/3/5
f 514/3/5 509/3/5 508/3/5
f 514/3/5 508/3/5 507/3/5
f 515/3/5 509/3/5 514/3/5
f 516/3/5 509/3/5 515/3/5
f 517/3/5 513/3/5 512/3/5
f 517/3/5 515/3/5 514/3/5
f 517/3/5 514/3/5 513/3/5
f 518/3/5 515/3/5 517/3/5
f 522/3/5 520/3/5 519/3/5
f 523/3/5 520/3/5 522/3/5
f 524/3/5 520/3/5 523/3/5
f 525/3/5 520/3/5 524/3/5
f 528/3/5 522/3/5 521/3/5
f 529/3/5 522/3/5 528/3/5
f 530/3/5 524/3/5 523/3/5
f 531/3/5 524/3/5 530/3/5
f 532/3/5 526/3/5 525/3/5
f 533/3/5 526/3/5 532/3/5
f 536/3/5 528/3/5 527/3/5
f 537/3/5 528/3/5 536/3/5
f 538/3/5 534/3/5 533/3/5
f 539/3/5 534/3/5 538/3/5
f 541/3/5 536/3/5 535/3/5
f 544/3/5 540/3/5 539/3/5
f 545/3/5 542/3/5 541/3/5
f 545/3/5 541/3/5 535/3/5
f 546/3/5 542/3/5 545/3/5
f 547/3/5 544/3/5 543/3/5
f 548/3/5 540/3/5 544/3/5
f 548/3/5 544/3/5 547/3/5
f 549/3/5 545/3/5 535/3/5
f 550/3/5 545/3/5 549/3/5
f 553/3/5 540/3/5 548/3/5
f 554/3/5 540/3/5 553/3/5
f 555/3/5 551/3/5 550/3/5
f 556/3/5 551/3/5 555/3/5
f 561/3/5 553/3/5 552/3/5
f 562/3/5 553/3/5 561/3/5
f 563/3/5 557/3/5 556/3/5
f 564/3/5 557/3/5 563/3/5
f 565/3/5 559/3/5 558/3/5
f 566/3/5 559/3/5 565/3/5
f 567/3/5 561/3/5 560/3/5
f 568/3/5 561/3/5 567/3/5
f 569/3/5 566/3/5 565/3/5
f 569/3/5 567/3/5 566/3/5
f 569/3/5 565/3/5 564/3/5
f 570/3/5 567/3/5 569/3/5
f 574/3/5 572/3/5 571/3/5
f 575/3/5 572/3/5 574/3/5
f 577/3/5 574/3/5 573/3/5
f 577/3/5 576/3/5 575/3/5
f 577/3/5 575/3/5 574/3/5
f 578/3/5 576/3/5 577/3/5
f 579/3/5 576/3/5 578/3/5
f 580/3/5 576/3/5 579/3/5
f 581/3/5 579/3/5 578/3/5
f 582/3/5 579/3/5 581/3/5
f 583/3/6 584/3/6 586/3/6
f 586/3/6 584/3/6 587/3/6
f 587/3/6 584/3/6 588/3/6
f 588/3/6 584/3/6 589/3/6
f 585/3/6 586/3/6 592/3/6
f 592/3/6 586/3/6 593/3/6
f 589/3/6 590/3/6 594/3/6
f 594/3/6 590/3/6 595/3/6
f 591/3/6 592/3/6 598/3/6
f 598/3/6 592/3/6 599/3/6
f 595/3/6 596/3/6 600/3/6
f 600/3/6 596/3/6 601/3/6
f 597/3/6 598/3/6 603/3/6
f 601/3/6 602/3/6 604/3/6
f 597/3/6 603/3/6 605/3/6
f 604/3/6 602/3/6 606/3/6
f 597/3/6 605/3/6 607/3/6
f 607/3/6 605/3/6 608/3/6
f 606/3/6 602/3/6 611/3/6
f 611/3/6 602/3/6 612/3/6
f 608/3/6 609/3/6 613/3/6
f 613/3/6 609/3/6 614/3/6
f 610/3/6 611/3/6 617/3/6
f 617/3/6 611/3/6 618/3/6
f 614/3/6 615/3/6 619/3/6
f 619/3/6 615/3/6 620/3/6
f 616/3/6 617/3/6 623/3/6
f 623/3/6 617/3/6 624/3/6
f 621/3/6 622/3/6 625/3/6
f 622/3/6 623/3/6 625/3/6
f 620/3/6 621/3/6 625/3/6
f 625/3/6 623/3/6 626/3/6
f 627/3/6 628/3/6 630/3/6
f 630/3/6 628/3/6 631/3/6
f 629/3/6 630/3/6 634/3/6
f 631/3/6 632/3/6 634/3/6
f 630/3/6 631/3/6 634/3/6
f 634/3/6 632/3/6 635/3/6
f 633/3/6 634/3/6 638/3/6
f 635/3/6 636/3/6 638/3/6
f 634/3/6 635/3/6 638/3/6
f 638/3/6 636/3/6 639/3/6
f 637/3/6 638/3/6 641/3/6
f 639/3/6 640/3/6 641/3/6
f 638/3/6 639/3/6 641/3/6
f 641/3/6 640/3/6 642/3/6
f 642/3/6 640/3/6 643/3/6
f 643/3/6 640/3/6 644/3/6
f 642/3/6 643/3/6 645/3/6
f 645/3/6 643/3/6 646/3/6
f 646/3/6 643/3/6 647/3/6
f 647/3/6 643/3/6 648/3/6
f 646/3/6 647/3/6 649/3/6
f 649/3/6 647/3/6 650/3/6
f 650/3/6 647/3/6 651/3/6
f 651/3/6 647/3/6 652/3/6
f 650/3/6 651/3/6 653/3/6
f 653/3/6 651/3/6 654/3/6
