# MagicaVoxel @ Ephtracy

# material
mtllib viswall2.mtl
usemtl palette

# normals
vn -1 0 0
vn 1 0 0
vn 0 0 1
vn 0 0 -1
vn 0 -1 0
vn 0 1 0

# texcoords
vt 0.869141 0.5
vt 0.884766 0.5

# verts
v 10 8 -7
v 10 8 -8
v 10 10 -7
v 10 10 -8
v 10 14 -7
v 10 14 -8
v 10 16 -7
v 10 16 -8
v 11 8 -8
v 11 8 -10
v 11 10 -8
v 11 10 -10
v 11 14 -8
v 11 14 -10
v 11 16 -8
v 11 16 -10
v 12 8 -10
v 12 8 -11
v 12 10 -10
v 12 10 -11
v 12 14 -10
v 12 14 -11
v 12 16 -10
v 12 16 -11
v 16 8 3
v 16 8 2
v 16 10 3
v 16 10 2
v 16 14 3
v 16 14 2
v 16 16 3
v 16 16 2
v 17 8 2
v 17 8 1
v 17 8 -9
v 17 8 -10
v 17 10 2
v 17 10 1
v 17 10 -9
v 17 10 -10
v 17 14 2
v 17 14 1
v 17 14 -9
v 17 14 -10
v 17 16 2
v 17 16 1
v 17 16 -9
v 17 16 -10
v 18 8 1
v 18 8 -0
v 18 8 -8
v 18 8 -9
v 18 9 -0
v 18 9 -1
v 18 9 -7
v 18 9 -8
v 18 10 1
v 18 10 -1
v 18 10 -7
v 18 10 -9
v 18 14 1
v 18 14 -1
v 18 14 -7
v 18 14 -9
v 18 16 1
v 18 16 -1
v 18 16 -7
v 18 16 -9
v 19 8 -0
v 19 8 -1
v 19 8 -7
v 19 8 -8
v 19 9 -0
v 19 9 -1
v 19 9 -7
v 19 9 -8
v 20 8 -1
v 20 8 -2
v 20 8 -6
v 20 8 -7
v 20 10 -1
v 20 10 -2
v 20 10 -6
v 20 10 -7
v 20 14 -1
v 20 14 -2
v 20 14 -6
v 20 14 -7
v 20 16 -1
v 20 16 -2
v 20 16 -6
v 20 16 -7
v 21 8 -2
v 21 8 -6
v 21 10 -2
v 21 10 -6
v 21 14 -2
v 21 14 -6
v 21 16 -2
v 21 16 -6
v 11 8 -7
v 11 8 -8
v 11 9 -7
v 11 9 -8
v 12 8 -8
v 12 8 -9
v 12 9 -7
v 12 9 -8
v 12 10 -7
v 12 10 -9
v 12 14 -7
v 12 14 -9
v 12 16 -7
v 12 16 -9
v 13 8 -9
v 13 8 -10
v 13 10 -9
v 13 10 -10
v 13 14 -9
v 13 14 -10
v 13 16 -9
v 13 16 -10
v 18 8 3
v 18 8 2
v 18 8 -10
v 18 8 -11
v 18 10 3
v 18 10 2
v 18 10 -10
v 18 10 -11
v 18 14 3
v 18 14 2
v 18 14 -10
v 18 14 -11
v 18 16 3
v 18 16 2
v 18 16 -10
v 18 16 -11
v 19 8 2
v 19 8 -0
v 19 8 -8
v 19 8 -10
v 19 10 2
v 19 10 -0
v 19 10 -8
v 19 10 -10
v 19 14 2
v 19 14 -0
v 19 14 -8
v 19 14 -10
v 19 16 2
v 19 16 -0
v 19 16 -8
v 19 16 -10
v 21 8 -0
v 21 8 -1
v 21 8 -7
v 21 8 -8
v 21 10 -0
v 21 10 -1
v 21 10 -7
v 21 10 -8
v 21 14 -0
v 21 14 -1
v 21 14 -7
v 21 14 -8
v 21 16 -0
v 21 16 -1
v 21 16 -7
v 21 16 -8
v 22 8 -1
v 22 8 -7
v 22 10 -1
v 22 10 -7
v 22 14 -1
v 22 14 -7
v 22 16 -1
v 22 16 -7
v 16 8 3
v 16 10 3
v 16 14 3
v 16 16 3
v 18 8 3
v 18 10 3
v 18 14 3
v 18 16 3
v 18 8 2
v 18 10 2
v 18 14 2
v 18 16 2
v 19 8 2
v 19 10 2
v 19 14 2
v 19 16 2
v 19 8 -0
v 19 10 -0
v 19 14 -0
v 19 16 -0
v 21 8 -0
v 21 10 -0
v 21 14 -0
v 21 16 -0
v 21 8 -1
v 21 10 -1
v 21 14 -1
v 21 16 -1
v 22 8 -1
v 22 10 -1
v 22 14 -1
v 22 16 -1
v 20 8 -6
v 20 10 -6
v 20 14 -6
v 20 16 -6
v 21 8 -6
v 21 10 -6
v 21 14 -6
v 21 16 -6
v 10 8 -7
v 10 10 -7
v 10 14 -7
v 10 16 -7
v 11 8 -7
v 11 9 -7
v 12 9 -7
v 12 10 -7
v 12 14 -7
v 12 16 -7
v 18 9 -7
v 18 10 -7
v 18 14 -7
v 18 16 -7
v 19 8 -7
v 19 9 -7
v 20 8 -7
v 20 10 -7
v 20 14 -7
v 20 16 -7
v 11 8 -8
v 11 9 -8
v 12 8 -8
v 12 9 -8
v 18 8 -8
v 18 9 -8
v 19 8 -8
v 19 9 -8
v 12 8 -9
v 12 10 -9
v 12 14 -9
v 12 16 -9
v 13 8 -9
v 13 10 -9
v 13 14 -9
v 13 16 -9
v 17 8 -9
v 17 10 -9
v 17 14 -9
v 17 16 -9
v 18 8 -9
v 18 10 -9
v 18 14 -9
v 18 16 -9
v 13 8 -10
v 13 10 -10
v 13 14 -10
v 13 16 -10
v 17 8 -10
v 17 10 -10
v 17 14 -10
v 17 16 -10
v 16 8 2
v 16 10 2
v 16 14 2
v 16 16 2
v 17 8 2
v 17 10 2
v 17 14 2
v 17 16 2
v 17 8 1
v 17 10 1
v 17 14 1
v 17 16 1
v 18 8 1
v 18 10 1
v 18 14 1
v 18 16 1
v 18 8 -0
v 18 9 -0
v 19 8 -0
v 19 9 -0
v 18 9 -1
v 18 10 -1
v 18 14 -1
v 18 16 -1
v 19 8 -1
v 19 9 -1
v 20 8 -1
v 20 10 -1
v 20 14 -1
v 20 16 -1
v 20 8 -2
v 20 10 -2
v 20 14 -2
v 20 16 -2
v 21 8 -2
v 21 10 -2
v 21 14 -2
v 21 16 -2
v 21 8 -7
v 21 10 -7
v 21 14 -7
v 21 16 -7
v 22 8 -7
v 22 10 -7
v 22 14 -7
v 22 16 -7
v 10 8 -8
v 10 10 -8
v 10 14 -8
v 10 16 -8
v 11 8 -8
v 11 10 -8
v 11 14 -8
v 11 16 -8
v 19 8 -8
v 19 10 -8
v 19 14 -8
v 19 16 -8
v 21 8 -8
v 21 10 -8
v 21 14 -8
v 21 16 -8
v 11 8 -10
v 11 10 -10
v 11 14 -10
v 11 16 -10
v 12 8 -10
v 12 10 -10
v 12 14 -10
v 12 16 -10
v 18 8 -10
v 18 10 -10
v 18 14 -10
v 18 16 -10
v 19 8 -10
v 19 10 -10
v 19 14 -10
v 19 16 -10
v 12 8 -11
v 12 10 -11
v 12 14 -11
v 12 16 -11
v 18 8 -11
v 18 10 -11
v 18 14 -11
v 18 16 -11
v 16 8 3
v 18 8 3
v 16 8 2
v 17 8 2
v 18 8 2
v 19 8 2
v 17 8 1
v 18 8 1
v 18 8 -0
v 19 8 -0
v 21 8 -0
v 19 8 -1
v 20 8 -1
v 21 8 -1
v 22 8 -1
v 20 8 -2
v 21 8 -2
v 20 8 -6
v 21 8 -6
v 10 8 -7
v 11 8 -7
v 19 8 -7
v 20 8 -7
v 21 8 -7
v 22 8 -7
v 10 8 -8
v 11 8 -8
v 12 8 -8
v 18 8 -8
v 19 8 -8
v 21 8 -8
v 12 8 -9
v 13 8 -9
v 17 8 -9
v 18 8 -9
v 11 8 -10
v 12 8 -10
v 13 8 -10
v 17 8 -10
v 18 8 -10
v 19 8 -10
v 12 8 -11
v 18 8 -11
v 18 9 -0
v 19 9 -0
v 18 9 -1
v 19 9 -1
v 11 9 -7
v 12 9 -7
v 18 9 -7
v 19 9 -7
v 11 9 -8
v 12 9 -8
v 18 9 -8
v 19 9 -8
v 16 16 3
v 18 16 3
v 16 16 2
v 17 16 2
v 18 16 2
v 19 16 2
v 17 16 1
v 18 16 1
v 19 16 -0
v 21 16 -0
v 18 16 -1
v 20 16 -1
v 21 16 -1
v 22 16 -1
v 20 16 -2
v 21 16 -2
v 20 16 -6
v 21 16 -6
v 10 16 -7
v 12 16 -7
v 18 16 -7
v 20 16 -7
v 21 16 -7
v 22 16 -7
v 10 16 -8
v 11 16 -8
v 19 16 -8
v 21 16 -8
v 12 16 -9
v 13 16 -9
v 17 16 -9
v 18 16 -9
v 11 16 -10
v 12 16 -10
v 13 16 -10
v 17 16 -10
v 18 16 -10
v 19 16 -10
v 12 16 -11
v 18 16 -11

# faces
f 3/2/1 2/2/1 1/2/1
f 4/2/1 2/2/1 3/2/1
f 5/1/1 4/1/1 3/1/1
f 6/1/1 4/1/1 5/1/1
f 7/2/1 6/2/1 5/2/1
f 8/2/1 6/2/1 7/2/1
f 11/2/1 10/2/1 9/2/1
f 12/2/1 10/2/1 11/2/1
f 13/1/1 12/1/1 11/1/1
f 14/1/1 12/1/1 13/1/1
f 15/2/1 14/2/1 13/2/1
f 16/2/1 14/2/1 15/2/1
f 19/2/1 18/2/1 17/2/1
f 20/2/1 18/2/1 19/2/1
f 21/1/1 20/1/1 19/1/1
f 22/1/1 20/1/1 21/1/1
f 23/2/1 22/2/1 21/2/1
f 24/2/1 22/2/1 23/2/1
f 27/2/1 26/2/1 25/2/1
f 28/2/1 26/2/1 27/2/1
f 29/1/1 28/1/1 27/1/1
f 30/1/1 28/1/1 29/1/1
f 31/2/1 30/2/1 29/2/1
f 32/2/1 30/2/1 31/2/1
f 37/2/1 34/2/1 33/2/1
f 38/2/1 34/2/1 37/2/1
f 39/2/1 36/2/1 35/2/1
f 40/2/1 36/2/1 39/2/1
f 41/1/1 38/1/1 37/1/1
f 42/1/1 38/1/1 41/1/1
f 43/1/1 40/1/1 39/1/1
f 44/1/1 40/1/1 43/1/1
f 45/2/1 42/2/1 41/2/1
f 46/2/1 42/2/1 45/2/1
f 47/2/1 44/2/1 43/2/1
f 48/2/1 44/2/1 47/2/1
f 53/2/1 50/2/1 49/2/1
f 56/2/1 52/2/1 51/2/1
f 57/2/1 54/2/1 53/2/1
f 57/2/1 53/2/1 49/2/1
f 58/2/1 54/2/1 57/2/1
f 59/2/1 56/2/1 55/2/1
f 60/2/1 52/2/1 56/2/1
f 60/2/1 56/2/1 59/2/1
f 61/1/1 58/1/1 57/1/1
f 62/1/1 58/1/1 61/1/1
f 63/1/1 60/1/1 59/1/1
f 64/1/1 60/1/1 63/1/1
f 65/2/1 62/2/1 61/2/1
f 66/2/1 62/2/1 65/2/1
f 67/2/1 64/2/1 63/2/1
f 68/2/1 64/2/1 67/2/1
f 73/2/1 70/2/1 69/2/1
f 74/2/1 70/2/1 73/2/1
f 75/2/1 72/2/1 71/2/1
f 76/2/1 72/2/1 75/2/1
f 81/2/1 78/2/1 77/2/1
f 82/2/1 78/2/1 81/2/1
f 83/2/1 80/2/1 79/2/1
f 84/2/1 80/2/1 83/2/1
f 85/1/1 82/1/1 81/1/1
f 86/1/1 82/1/1 85/1/1
f 87/1/1 84/1/1 83/1/1
f 88/1/1 84/1/1 87/1/1
f 89/2/1 86/2/1 85/2/1
f 90/2/1 86/2/1 89/2/1
f 91/2/1 88/2/1 87/2/1
f 92/2/1 88/2/1 91/2/1
f 95/2/1 94/2/1 93/2/1
f 96/2/1 94/2/1 95/2/1
f 97/1/1 96/1/1 95/1/1
f 98/1/1 96/1/1 97/1/1
f 99/2/1 98/2/1 97/2/1
f 100/2/1 98/2/1 99/2/1
f 101/2/2 102/2/2 103/2/2
f 103/2/2 102/2/2 104/2/2
f 105/2/2 106/2/2 108/2/2
f 107/2/2 108/2/2 109/2/2
f 108/2/2 106/2/2 110/2/2
f 109/2/2 108/2/2 110/2/2
f 109/1/2 110/1/2 111/1/2
f 111/1/2 110/1/2 112/1/2
f 111/2/2 112/2/2 113/2/2
f 113/2/2 112/2/2 114/2/2
f 115/2/2 116/2/2 117/2/2
f 117/2/2 116/2/2 118/2/2
f 117/1/2 118/1/2 119/1/2
f 119/1/2 118/1/2 120/1/2
f 119/2/2 120/2/2 121/2/2
f 121/2/2 120/2/2 122/2/2
f 123/2/2 124/2/2 127/2/2
f 127/2/2 124/2/2 128/2/2
f 125/2/2 126/2/2 129/2/2
f 129/2/2 126/2/2 130/2/2
f 127/1/2 128/1/2 131/1/2
f 131/1/2 128/1/2 132/1/2
f 129/1/2 130/1/2 133/1/2
f 133/1/2 130/1/2 134/1/2
f 131/2/2 132/2/2 135/2/2
f 135/2/2 132/2/2 136/2/2
f 133/2/2 134/2/2 137/2/2
f 137/2/2 134/2/2 138/2/2
f 139/2/2 140/2/2 143/2/2
f 143/2/2 140/2/2 144/2/2
f 141/2/2 142/2/2 145/2/2
f 145/2/2 142/2/2 146/2/2
f 143/1/2 144/1/2 147/1/2
f 147/1/2 144/1/2 148/1/2
f 145/1/2 146/1/2 149/1/2
f 149/1/2 146/1/2 150/1/2
f 147/2/2 148/2/2 151/2/2
f 151/2/2 148/2/2 152/2/2
f 149/2/2 150/2/2 153/2/2
f 153/2/2 150/2/2 154/2/2
f 155/2/2 156/2/2 159/2/2
f 159/2/2 156/2/2 160/2/2
f 157/2/2 158/2/2 161/2/2
f 161/2/2 158/2/2 162/2/2
f 159/1/2 160/1/2 163/1/2
f 163/1/2 160/1/2 164/1/2
f 161/1/2 162/1/2 165/1/2
f 165/1/2 162/1/2 166/1/2
f 163/2/2 164/2/2 167/2/2
f 167/2/2 164/2/2 168/2/2
f 165/2/2 166/2/2 169/2/2
f 169/2/2 166/2/2 170/2/2
f 171/2/2 172/2/2 173/2/2
f 173/2/2 172/2/2 174/2/2
f 173/1/2 174/1/2 175/1/2
f 175/1/2 174/1/2 176/1/2
f 175/2/2 176/2/2 177/2/2
f 177/2/2 176/2/2 178/2/2
f 183/2/3 180/2/3 179/2/3
f 184/1/3 181/1/3 180/1/3
f 184/2/3 180/2/3 183/2/3
f 185/2/3 182/2/3 181/2/3
f 185/1/3 181/1/3 184/1/3
f 186/2/3 182/2/3 185/2/3
f 191/2/3 188/2/3 187/2/3
f 192/1/3 189/1/3 188/1/3
f 192/2/3 188/2/3 191/2/3
f 193/2/3 190/2/3 189/2/3
f 193/1/3 189/1/3 192/1/3
f 194/2/3 190/2/3 193/2/3
f 199/2/3 196/2/3 195/2/3
f 200/1/3 197/1/3 196/1/3
f 200/2/3 196/2/3 199/2/3
f 201/2/3 198/2/3 197/2/3
f 201/1/3 197/1/3 200/1/3
f 202/2/3 198/2/3 201/2/3
f 207/2/3 204/2/3 203/2/3
f 208/1/3 205/1/3 204/1/3
f 208/2/3 204/2/3 207/2/3
f 209/2/3 206/2/3 205/2/3
f 209/1/3 205/1/3 208/1/3
f 210/2/3 206/2/3 209/2/3
f 215/2/3 212/2/3 211/2/3
f 216/1/3 213/1/3 212/1/3
f 216/2/3 212/2/3 215/2/3
f 217/2/3 214/2/3 213/2/3
f 217/1/3 213/1/3 216/1/3
f 218/2/3 214/2/3 217/2/3
f 223/2/3 220/2/3 219/2/3
f 224/2/3 220/2/3 223/2/3
f 225/2/3 220/2/3 224/2/3
f 226/1/3 221/1/3 220/1/3
f 226/2/3 220/2/3 225/2/3
f 227/2/3 222/2/3 221/2/3
f 227/1/3 221/1/3 226/1/3
f 228/2/3 222/2/3 227/2/3
f 234/2/3 230/2/3 229/2/3
f 235/2/3 234/2/3 233/2/3
f 236/1/3 231/1/3 230/1/3
f 236/2/3 234/2/3 235/2/3
f 236/2/3 230/2/3 234/2/3
f 237/2/3 232/2/3 231/2/3
f 237/1/3 231/1/3 236/1/3
f 238/2/3 232/2/3 237/2/3
f 241/2/3 240/2/3 239/2/3
f 242/2/3 240/2/3 241/2/3
f 245/2/3 244/2/3 243/2/3
f 246/2/3 244/2/3 245/2/3
f 251/2/3 248/2/3 247/2/3
f 252/1/3 249/1/3 248/1/3
f 252/2/3 248/2/3 251/2/3
f 253/2/3 250/2/3 249/2/3
f 253/1/3 249/1/3 252/1/3
f 254/2/3 250/2/3 253/2/3
f 259/2/3 256/2/3 255/2/3
f 260/1/3 257/1/3 256/1/3
f 260/2/3 256/2/3 259/2/3
f 261/2/3 258/2/3 257/2/3
f 261/1/3 257/1/3 260/1/3
f 262/2/3 258/2/3 261/2/3
f 267/2/3 264/2/3 263/2/3
f 268/1/3 265/1/3 264/1/3
f 268/2/3 264/2/3 267/2/3
f 269/2/3 266/2/3 265/2/3
f 269/1/3 265/1/3 268/1/3
f 270/2/3 266/2/3 269/2/3
f 271/2/4 272/2/4 275/2/4
f 272/1/4 273/1/4 276/1/4
f 275/2/4 272/2/4 276/2/4
f 273/2/4 274/2/4 277/2/4
f 276/1/4 273/1/4 277/1/4
f 277/2/4 274/2/4 278/2/4
f 279/2/4 280/2/4 283/2/4
f 280/1/4 281/1/4 284/1/4
f 283/2/4 280/2/4 284/2/4
f 281/2/4 282/2/4 285/2/4
f 284/1/4 281/1/4 285/1/4
f 285/2/4 282/2/4 286/2/4
f 287/2/4 288/2/4 289/2/4
f 289/2/4 288/2/4 290/2/4
f 291/2/4 292/2/4 296/2/4
f 295/2/4 296/2/4 297/2/4
f 292/1/4 293/1/4 298/1/4
f 297/2/4 296/2/4 298/2/4
f 296/2/4 292/2/4 298/2/4
f 293/2/4 294/2/4 299/2/4
f 298/1/4 293/1/4 299/1/4
f 299/2/4 294/2/4 300/2/4
f 301/2/4 302/2/4 305/2/4
f 302/1/4 303/1/4 306/1/4
f 305/2/4 302/2/4 306/2/4
f 303/2/4 304/2/4 307/2/4
f 306/1/4 303/1/4 307/1/4
f 307/2/4 304/2/4 308/2/4
f 309/2/4 310/2/4 313/2/4
f 310/1/4 311/1/4 314/1/4
f 313/2/4 310/2/4 314/2/4
f 311/2/4 312/2/4 315/2/4
f 314/1/4 311/1/4 315/1/4
f 315/2/4 312/2/4 316/2/4
f 317/2/4 318/2/4 321/2/4
f 318/1/4 319/1/4 322/1/4
f 321/2/4 318/2/4 322/2/4
f 319/2/4 320/2/4 323/2/4
f 322/1/4 319/1/4 323/1/4
f 323/2/4 320/2/4 324/2/4
f 325/2/4 326/2/4 329/2/4
f 326/1/4 327/1/4 330/1/4
f 329/2/4 326/2/4 330/2/4
f 327/2/4 328/2/4 331/2/4
f 330/1/4 327/1/4 331/1/4
f 331/2/4 328/2/4 332/2/4
f 333/2/4 334/2/4 337/2/4
f 334/1/4 335/1/4 338/1/4
f 337/2/4 334/2/4 338/2/4
f 335/2/4 336/2/4 339/2/4
f 338/1/4 335/1/4 339/1/4
f 339/2/4 336/2/4 340/2/4
f 341/2/4 342/2/4 345/2/4
f 342/1/4 343/1/4 346/1/4
f 345/2/4 342/2/4 346/2/4
f 343/2/4 344/2/4 347/2/4
f 346/1/4 343/1/4 347/1/4
f 347/2/4 344/2/4 348/2/4
f 349/2/4 350/2/4 353/2/4
f 350/1/4 351/1/4 354/1/4
f 353/2/4 350/2/4 354/2/4
f 351/2/4 352/2/4 355/2/4
f 354/1/4 351/1/4 355/1/4
f 355/2/4 352/2/4 356/2/4
f 359/2/5 358/2/5 357/2/5
f 360/2/5 358/2/5 359/2/5
f 361/2/5 358/2/5 360/2/5
f 363/2/5 362/2/5 361/2/5
f 363/2/5 361/2/5 360/2/5
f 364/2/5 362/2/5 363/2/5
f 365/2/5 362/2/5 364/2/5
f 366/2/5 362/2/5 365/2/5
f 368/2/5 367/2/5 366/2/5
f 369/2/5 367/2/5 368/2/5
f 370/2/5 367/2/5 369/2/5
f 372/2/5 371/2/5 370/2/5
f 372/2/5 370/2/5 369/2/5
f 373/2/5 371/2/5 372/2/5
f 375/2/5 371/2/5 373/2/5
f 379/2/5 375/2/5 374/2/5
f 380/2/5 371/2/5 375/2/5
f 380/2/5 375/2/5 379/2/5
f 381/2/5 371/2/5 380/2/5
f 382/2/5 377/2/5 376/2/5
f 383/2/5 377/2/5 382/2/5
f 386/2/5 379/2/5 378/2/5
f 386/2/5 380/2/5 379/2/5
f 387/2/5 380/2/5 386/2/5
f 388/2/5 384/2/5 383/2/5
f 391/2/5 386/2/5 385/2/5
f 392/2/5 389/2/5 388/2/5
f 392/2/5 388/2/5 383/2/5
f 393/2/5 389/2/5 392/2/5
f 394/2/5 389/2/5 393/2/5
f 395/2/5 391/2/5 390/2/5
f 396/2/5 386/2/5 391/2/5
f 396/2/5 391/2/5 395/2/5
f 397/2/5 386/2/5 396/2/5
f 398/2/5 394/2/5 393/2/5
f 398/2/5 395/2/5 394/2/5
f 398/2/5 396/2/5 395/2/5
f 399/2/5 396/2/5 398/2/5
f 402/2/5 401/2/5 400/2/5
f 403/2/5 401/2/5 402/2/5
f 408/2/5 405/2/5 404/2/5
f 409/2/5 405/2/5 408/2/5
f 410/2/5 407/2/5 406/2/5
f 411/2/5 407/2/5 410/2/5
f 412/2/6 413/2/6 414/2/6
f 414/2/6 413/2/6 415/2/6
f 415/2/6 413/2/6 416/2/6
f 416/2/6 417/2/6 418/2/6
f 415/2/6 416/2/6 418/2/6
f 418/2/6 417/2/6 419/2/6
f 419/2/6 417/2/6 420/2/6
f 419/2/6 420/2/6 422/2/6
f 420/2/6 421/2/6 422/2/6
f 422/2/6 421/2/6 423/2/6
f 423/2/6 421/2/6 424/2/6
f 424/2/6 425/2/6 426/2/6
f 423/2/6 424/2/6 426/2/6
f 426/2/6 425/2/6 427/2/6
f 427/2/6 425/2/6 429/2/6
f 428/2/6 429/2/6 433/2/6
f 429/2/6 425/2/6 434/2/6
f 433/2/6 429/2/6 434/2/6
f 434/2/6 425/2/6 435/2/6
f 430/2/6 431/2/6 436/2/6
f 436/2/6 431/2/6 437/2/6
f 432/2/6 433/2/6 438/2/6
f 433/2/6 434/2/6 438/2/6
f 438/2/6 434/2/6 439/2/6
f 437/2/6 431/2/6 440/2/6
f 432/2/6 438/2/6 443/2/6
f 440/2/6 441/2/6 444/2/6
f 437/2/6 440/2/6 444/2/6
f 444/2/6 441/2/6 445/2/6
f 445/2/6 441/2/6 446/2/6
f 442/2/6 443/2/6 447/2/6
f 443/2/6 438/2/6 448/2/6
f 447/2/6 443/2/6 448/2/6
f 448/2/6 438/2/6 449/2/6
f 445/2/6 446/2/6 450/2/6
f 446/2/6 447/2/6 450/2/6
f 447/2/6 448/2/6 450/2/6
f 450/2/6 448/2/6 451/2/6
