# MagicaVoxel @ Ephtracy

# material
mtllib 1.5stair.mtl
usemtl palette

# normals
vn -1 0 0
vn 1 0 0
vn 0 0 1
vn 0 0 -1
vn 0 -1 0
vn 0 1 0

# texcoords
vt 0.865234 0.5

# verts
v -39 0 -18
v -39 0 -24
v -39 1 -18
v -39 1 -24
v -38 1 -18
v -38 1 -24
v -38 2 -18
v -38 2 -24
v -37 2 -18
v -37 2 -24
v -37 3 -18
v -37 3 -24
v -36 3 -18
v -36 3 -24
v -36 4 -18
v -36 4 -24
v -35 4 -18
v -35 4 -24
v -35 5 -18
v -35 5 -24
v -34 5 -18
v -34 5 -24
v -34 6 -18
v -34 6 -24
v -33 6 -18
v -33 6 -24
v -33 7 -18
v -33 7 -24
v -32 7 -18
v -32 7 -24
v -32 8 -18
v -32 8 -24
v -31 8 -18
v -31 8 -24
v -31 9 -18
v -31 9 -24
v -30 9 -18
v -30 9 -24
v -30 10 -18
v -30 10 -24
v -29 10 -18
v -29 10 -24
v -29 11 -18
v -29 11 -24
v -28 11 -18
v -28 11 -24
v -28 12 -18
v -28 12 -24
v -27 0 30
v -27 0 24
v -27 11 30
v -27 11 24
v 18 6 -48
v 18 6 -54
v 18 9 -48
v 18 9 -54
v 21 3 -48
v 21 3 -54
v 21 6 -48
v 21 6 -54
v 21 9 -48
v 21 9 -54
v 21 11 -48
v 21 11 -54
v 24 0 -48
v 24 0 -54
v 24 3 -48
v 24 3 -54
v -33 0 -18
v -33 0 -24
v -33 3 -18
v -33 3 -24
v -30 3 -18
v -30 3 -24
v -30 6 -18
v -30 6 -24
v -27 6 -18
v -27 6 -24
v -27 12 -18
v -27 12 -24
v -26 10 30
v -26 10 24
v -26 11 30
v -26 11 24
v -25 9 30
v -25 9 24
v -25 10 30
v -25 10 24
v -24 8 30
v -24 8 24
v -24 9 30
v -24 9 24
v -23 7 30
v -23 7 24
v -23 8 30
v -23 8 24
v -22 6 30
v -22 6 24
v -22 7 30
v -22 7 24
v -21 5 30
v -21 5 24
v -21 6 30
v -21 6 24
v -20 4 30
v -20 4 24
v -20 5 30
v -20 5 24
v -19 3 30
v -19 3 24
v -19 4 30
v -19 4 24
v -18 2 30
v -18 2 24
v -18 3 30
v -18 3 24
v -17 1 30
v -17 1 24
v -17 2 30
v -17 2 24
v -16 0 30
v -16 0 24
v -16 1 30
v -16 1 24
v 22 10 -48
v 22 10 -54
v 22 11 -48
v 22 11 -54
v 23 9 -48
v 23 9 -54
v 23 10 -48
v 23 10 -54
v 24 8 -48
v 24 8 -54
v 24 9 -48
v 24 9 -54
v 25 7 -48
v 25 7 -54
v 25 8 -48
v 25 8 -54
v 26 6 -48
v 26 6 -54
v 26 7 -48
v 26 7 -54
v 27 5 -48
v 27 5 -54
v 27 6 -48
v 27 6 -54
v 28 4 -48
v 28 4 -54
v 28 5 -48
v 28 5 -54
v 29 3 -48
v 29 3 -54
v 29 4 -48
v 29 4 -54
v 30 2 -48
v 30 2 -54
v 30 3 -48
v 30 3 -54
v 31 1 -48
v 31 1 -54
v 31 2 -48
v 31 2 -54
v 32 0 -48
v 32 0 -54
v 32 1 -48
v 32 1 -54
v -27 0 30
v -27 11 30
v -26 10 30
v -26 11 30
v -25 9 30
v -25 10 30
v -24 8 30
v -24 9 30
v -23 7 30
v -23 8 30
v -22 6 30
v -22 7 30
v -21 5 30
v -21 6 30
v -20 4 30
v -20 5 30
v -19 3 30
v -19 4 30
v -18 2 30
v -18 3 30
v -17 1 30
v -17 2 30
v -16 0 30
v -16 1 30
v -39 0 -18
v -39 1 -18
v -38 1 -18
v -38 2 -18
v -37 2 -18
v -37 3 -18
v -36 3 -18
v -36 4 -18
v -35 4 -18
v -35 5 -18
v -34 5 -18
v -34 6 -18
v -33 0 -18
v -33 3 -18
v -33 6 -18
v -33 7 -18
v -32 7 -18
v -32 8 -18
v -31 8 -18
v -31 9 -18
v -30 3 -18
v -30 6 -18
v -30 9 -18
v -30 10 -18
v -29 10 -18
v -29 11 -18
v -28 11 -18
v -28 12 -18
v -27 6 -18
v -27 12 -18
v 18 6 -48
v 18 9 -48
v 21 3 -48
v 21 6 -48
v 21 9 -48
v 21 11 -48
v 22 10 -48
v 22 11 -48
v 23 9 -48
v 23 10 -48
v 24 0 -48
v 24 3 -48
v 24 8 -48
v 24 9 -48
v 25 7 -48
v 25 8 -48
v 26 6 -48
v 26 7 -48
v 27 5 -48
v 27 6 -48
v 28 4 -48
v 28 5 -48
v 29 3 -48
v 29 4 -48
v 30 2 -48
v 30 3 -48
v 31 1 -48
v 31 2 -48
v 32 0 -48
v 32 1 -48
v -27 0 24
v -27 11 24
v -26 10 24
v -26 11 24
v -25 9 24
v -25 10 24
v -24 8 24
v -24 9 24
v -23 7 24
v -23 8 24
v -22 6 24
v -22 7 24
v -21 5 24
v -21 6 24
v -20 4 24
v -20 5 24
v -19 3 24
v -19 4 24
v -18 2 24
v -18 3 24
v -17 1 24
v -17 2 24
v -16 0 24
v -16 1 24
v -39 0 -24
v -39 1 -24
v -38 1 -24
v -38 2 -24
v -37 2 -24
v -37 3 -24
v -36 3 -24
v -36 4 -24
v -35 4 -24
v -35 5 -24
v -34 5 -24
v -34 6 -24
v -33 0 -24
v -33 3 -24
v -33 6 -24
v -33 7 -24
v -32 7 -24
v -32 8 -24
v -31 8 -24
v -31 9 -24
v -30 3 -24
v -30 6 -24
v -30 9 -24
v -30 10 -24
v -29 10 -24
v -29 11 -24
v -28 11 -24
v -28 12 -24
v -27 6 -24
v -27 12 -24
v 18 6 -54
v 18 9 -54
v 21 3 -54
v 21 6 -54
v 21 9 -54
v 21 11 -54
v 22 10 -54
v 22 11 -54
v 23 9 -54
v 23 10 -54
v 24 0 -54
v 24 3 -54
v 24 8 -54
v 24 9 -54
v 25 7 -54
v 25 8 -54
v 26 6 -54
v 26 7 -54
v 27 5 -54
v 27 6 -54
v 28 4 -54
v 28 5 -54
v 29 3 -54
v 29 4 -54
v 30 2 -54
v 30 3 -54
v 31 1 -54
v 31 2 -54
v 32 0 -54
v 32 1 -54
v -27 0 30
v -16 0 30
v -27 0 24
v -16 0 24
v -39 0 -18
v -33 0 -18
v -39 0 -24
v -33 0 -24
v 24 0 -48
v 32 0 -48
v 24 0 -54
v 32 0 -54
v -33 3 -18
v -30 3 -18
v -33 3 -24
v -30 3 -24
v 21 3 -48
v 24 3 -48
v 21 3 -54
v 24 3 -54
v -30 6 -18
v -27 6 -18
v -30 6 -24
v -27 6 -24
v 18 6 -48
v 21 6 -48
v 18 6 -54
v 21 6 -54
v -17 1 30
v -16 1 30
v -17 1 24
v -16 1 24
v -39 1 -18
v -38 1 -18
v -39 1 -24
v -38 1 -24
v 31 1 -48
v 32 1 -48
v 31 1 -54
v 32 1 -54
v -18 2 30
v -17 2 30
v -18 2 24
v -17 2 24
v -38 2 -18
v -37 2 -18
v -38 2 -24
v -37 2 -24
v 30 2 -48
v 31 2 -48
v 30 2 -54
v 31 2 -54
v -19 3 30
v -18 3 30
v -19 3 24
v -18 3 24
v -37 3 -18
v -36 3 -18
v -37 3 -24
v -36 3 -24
v 29 3 -48
v 30 3 -48
v 29 3 -54
v 30 3 -54
v -20 4 30
v -19 4 30
v -20 4 24
v -19 4 24
v -36 4 -18
v -35 4 -18
v -36 4 -24
v -35 4 -24
v 28 4 -48
v 29 4 -48
v 28 4 -54
v 29 4 -54
v -21 5 30
v -20 5 30
v -21 5 24
v -20 5 24
v -35 5 -18
v -34 5 -18
v -35 5 -24
v -34 5 -24
v 27 5 -48
v 28 5 -48
v 27 5 -54
v 28 5 -54
v -22 6 30
v -21 6 30
v -22 6 24
v -21 6 24
v -34 6 -18
v -33 6 -18
v -34 6 -24
v -33 6 -24
v 26 6 -48
v 27 6 -48
v 26 6 -54
v 27 6 -54
v -23 7 30
v -22 7 30
v -23 7 24
v -22 7 24
v -33 7 -18
v -32 7 -18
v -33 7 -24
v -32 7 -24
v 25 7 -48
v 26 7 -48
v 25 7 -54
v 26 7 -54
v -24 8 30
v -23 8 30
v -24 8 24
v -23 8 24
v -32 8 -18
v -31 8 -18
v -32 8 -24
v -31 8 -24
v 24 8 -48
v 25 8 -48
v 24 8 -54
v 25 8 -54
v -25 9 30
v -24 9 30
v -25 9 24
v -24 9 24
v -31 9 -18
v -30 9 -18
v -31 9 -24
v -30 9 -24
v 18 9 -48
v 21 9 -48
v 23 9 -48
v 24 9 -48
v 18 9 -54
v 21 9 -54
v 23 9 -54
v 24 9 -54
v -26 10 30
v -25 10 30
v -26 10 24
v -25 10 24
v -30 10 -18
v -29 10 -18
v -30 10 -24
v -29 10 -24
v 22 10 -48
v 23 10 -48
v 22 10 -54
v 23 10 -54
v -27 11 30
v -26 11 30
v -27 11 24
v -26 11 24
v -29 11 -18
v -28 11 -18
v -29 11 -24
v -28 11 -24
v 21 11 -48
v 22 11 -48
v 21 11 -54
v 22 11 -54
v -28 12 -18
v -27 12 -18
v -28 12 -24
v -27 12 -24

# faces
f 3/1/1 2/1/1 1/1/1
f 4/1/1 2/1/1 3/1/1
f 7/1/1 6/1/1 5/1/1
f 8/1/1 6/1/1 7/1/1
f 11/1/1 10/1/1 9/1/1
f 12/1/1 10/1/1 11/1/1
f 15/1/1 14/1/1 13/1/1
f 16/1/1 14/1/1 15/1/1
f 19/1/1 18/1/1 17/1/1
f 20/1/1 18/1/1 19/1/1
f 23/1/1 22/1/1 21/1/1
f 24/1/1 22/1/1 23/1/1
f 27/1/1 26/1/1 25/1/1
f 28/1/1 26/1/1 27/1/1
f 31/1/1 30/1/1 29/1/1
f 32/1/1 30/1/1 31/1/1
f 35/1/1 34/1/1 33/1/1
f 36/1/1 34/1/1 35/1/1
f 39/1/1 38/1/1 37/1/1
f 40/1/1 38/1/1 39/1/1
f 43/1/1 42/1/1 41/1/1
f 44/1/1 42/1/1 43/1/1
f 47/1/1 46/1/1 45/1/1
f 48/1/1 46/1/1 47/1/1
f 51/1/1 50/1/1 49/1/1
f 52/1/1 50/1/1 51/1/1
f 55/1/1 54/1/1 53/1/1
f 56/1/1 54/1/1 55/1/1
f 59/1/1 58/1/1 57/1/1
f 60/1/1 58/1/1 59/1/1
f 63/1/1 62/1/1 61/1/1
f 64/1/1 62/1/1 63/1/1
f 67/1/1 66/1/1 65/1/1
f 68/1/1 66/1/1 67/1/1
f 69/1/2 70/1/2 71/1/2
f 71/1/2 70/1/2 72/1/2
f 73/1/2 74/1/2 75/1/2
f 75/1/2 74/1/2 76/1/2
f 77/1/2 78/1/2 79/1/2
f 79/1/2 78/1/2 80/1/2
f 81/1/2 82/1/2 83/1/2
f 83/1/2 82/1/2 84/1/2
f 85/1/2 86/1/2 87/1/2
f 87/1/2 86/1/2 88/1/2
f 89/1/2 90/1/2 91/1/2
f 91/1/2 90/1/2 92/1/2
f 93/1/2 94/1/2 95/1/2
f 95/1/2 94/1/2 96/1/2
f 97/1/2 98/1/2 99/1/2
f 99/1/2 98/1/2 100/1/2
f 101/1/2 102/1/2 103/1/2
f 103/1/2 102/1/2 104/1/2
f 105/1/2 106/1/2 107/1/2
f 107/1/2 106/1/2 108/1/2
f 109/1/2 110/1/2 111/1/2
f 111/1/2 110/1/2 112/1/2
f 113/1/2 114/1/2 115/1/2
f 115/1/2 114/1/2 116/1/2
f 117/1/2 118/1/2 119/1/2
f 119/1/2 118/1/2 120/1/2
f 121/1/2 122/1/2 123/1/2
f 123/1/2 122/1/2 124/1/2
f 125/1/2 126/1/2 127/1/2
f 127/1/2 126/1/2 128/1/2
f 129/1/2 130/1/2 131/1/2
f 131/1/2 130/1/2 132/1/2
f 133/1/2 134/1/2 135/1/2
f 135/1/2 134/1/2 136/1/2
f 137/1/2 138/1/2 139/1/2
f 139/1/2 138/1/2 140/1/2
f 141/1/2 142/1/2 143/1/2
f 143/1/2 142/1/2 144/1/2
f 145/1/2 146/1/2 147/1/2
f 147/1/2 146/1/2 148/1/2
f 149/1/2 150/1/2 151/1/2
f 151/1/2 150/1/2 152/1/2
f 153/1/2 154/1/2 155/1/2
f 155/1/2 154/1/2 156/1/2
f 157/1/2 158/1/2 159/1/2
f 159/1/2 158/1/2 160/1/2
f 161/1/2 162/1/2 163/1/2
f 163/1/2 162/1/2 164/1/2
f 165/1/2 166/1/2 167/1/2
f 167/1/2 166/1/2 168/1/2
f 171/1/3 170/1/3 169/1/3
f 172/1/3 170/1/3 171/1/3
f 173/1/3 171/1/3 169/1/3
f 174/1/3 171/1/3 173/1/3
f 175/1/3 173/1/3 169/1/3
f 176/1/3 173/1/3 175/1/3
f 177/1/3 175/1/3 169/1/3
f 178/1/3 175/1/3 177/1/3
f 179/1/3 177/1/3 169/1/3
f 180/1/3 177/1/3 179/1/3
f 181/1/3 179/1/3 169/1/3
f 182/1/3 179/1/3 181/1/3
f 183/1/3 181/1/3 169/1/3
f 184/1/3 181/1/3 183/1/3
f 185/1/3 183/1/3 169/1/3
f 186/1/3 183/1/3 185/1/3
f 187/1/3 185/1/3 169/1/3
f 188/1/3 185/1/3 187/1/3
f 189/1/3 187/1/3 169/1/3
f 190/1/3 187/1/3 189/1/3
f 191/1/3 189/1/3 169/1/3
f 192/1/3 189/1/3 191/1/3
f 195/1/3 194/1/3 193/1/3
f 197/1/3 196/1/3 195/1/3
f 199/1/3 198/1/3 197/1/3
f 201/1/3 200/1/3 199/1/3
f 203/1/3 202/1/3 201/1/3
f 205/1/3 195/1/3 193/1/3
f 205/1/3 204/1/3 203/1/3
f 205/1/3 203/1/3 201/1/3
f 205/1/3 201/1/3 199/1/3
f 205/1/3 199/1/3 197/1/3
f 205/1/3 197/1/3 195/1/3
f 206/1/3 204/1/3 205/1/3
f 207/1/3 204/1/3 206/1/3
f 209/1/3 208/1/3 207/1/3
f 209/1/3 207/1/3 206/1/3
f 211/1/3 210/1/3 209/1/3
f 213/1/3 209/1/3 206/1/3
f 213/1/3 212/1/3 211/1/3
f 213/1/3 211/1/3 209/1/3
f 214/1/3 212/1/3 213/1/3
f 215/1/3 212/1/3 214/1/3
f 217/1/3 216/1/3 215/1/3
f 217/1/3 215/1/3 214/1/3
f 219/1/3 218/1/3 217/1/3
f 221/1/3 217/1/3 214/1/3
f 221/1/3 220/1/3 219/1/3
f 221/1/3 219/1/3 217/1/3
f 222/1/3 220/1/3 221/1/3
f 226/1/3 224/1/3 223/1/3
f 227/1/3 224/1/3 226/1/3
f 229/1/3 226/1/3 225/1/3
f 229/1/3 228/1/3 227/1/3
f 229/1/3 227/1/3 226/1/3
f 230/1/3 228/1/3 229/1/3
f 231/1/3 229/1/3 225/1/3
f 232/1/3 229/1/3 231/1/3
f 234/1/3 231/1/3 225/1/3
f 235/1/3 231/1/3 234/1/3
f 236/1/3 231/1/3 235/1/3
f 237/1/3 234/1/3 233/1/3
f 237/1/3 235/1/3 234/1/3
f 238/1/3 235/1/3 237/1/3
f 239/1/3 237/1/3 233/1/3
f 240/1/3 237/1/3 239/1/3
f 241/1/3 239/1/3 233/1/3
f 242/1/3 239/1/3 241/1/3
f 243/1/3 241/1/3 233/1/3
f 244/1/3 241/1/3 243/1/3
f 245/1/3 243/1/3 233/1/3
f 246/1/3 243/1/3 245/1/3
f 247/1/3 245/1/3 233/1/3
f 248/1/3 245/1/3 247/1/3
f 249/1/3 247/1/3 233/1/3
f 250/1/3 247/1/3 249/1/3
f 251/1/3 249/1/3 233/1/3
f 252/1/3 249/1/3 251/1/3
f 253/1/4 254/1/4 255/1/4
f 255/1/4 254/1/4 256/1/4
f 253/1/4 255/1/4 257/1/4
f 257/1/4 255/1/4 258/1/4
f 253/1/4 257/1/4 259/1/4
f 259/1/4 257/1/4 260/1/4
f 253/1/4 259/1/4 261/1/4
f 261/1/4 259/1/4 262/1/4
f 253/1/4 261/1/4 263/1/4
f 263/1/4 261/1/4 264/1/4
f 253/1/4 263/1/4 265/1/4
f 265/1/4 263/1/4 266/1/4
f 253/1/4 265/1/4 267/1/4
f 267/1/4 265/1/4 268/1/4
f 253/1/4 267/1/4 269/1/4
f 269/1/4 267/1/4 270/1/4
f 253/1/4 269/1/4 271/1/4
f 271/1/4 269/1/4 272/1/4
f 253/1/4 271/1/4 273/1/4
f 273/1/4 271/1/4 274/1/4
f 253/1/4 273/1/4 275/1/4
f 275/1/4 273/1/4 276/1/4
f 277/1/4 278/1/4 279/1/4
f 279/1/4 280/1/4 281/1/4
f 281/1/4 282/1/4 283/1/4
f 283/1/4 284/1/4 285/1/4
f 285/1/4 286/1/4 287/1/4
f 277/1/4 279/1/4 289/1/4
f 287/1/4 288/1/4 289/1/4
f 285/1/4 287/1/4 289/1/4
f 283/1/4 285/1/4 289/1/4
f 281/1/4 283/1/4 289/1/4
f 279/1/4 281/1/4 289/1/4
f 289/1/4 288/1/4 290/1/4
f 290/1/4 288/1/4 291/1/4
f 291/1/4 292/1/4 293/1/4
f 290/1/4 291/1/4 293/1/4
f 293/1/4 294/1/4 295/1/4
f 290/1/4 293/1/4 297/1/4
f 295/1/4 296/1/4 297/1/4
f 293/1/4 295/1/4 297/1/4
f 297/1/4 296/1/4 298/1/4
f 298/1/4 296/1/4 299/1/4
f 299/1/4 300/1/4 301/1/4
f 298/1/4 299/1/4 301/1/4
f 301/1/4 302/1/4 303/1/4
f 298/1/4 301/1/4 305/1/4
f 303/1/4 304/1/4 305/1/4
f 301/1/4 303/1/4 305/1/4
f 305/1/4 304/1/4 306/1/4
f 307/1/4 308/1/4 310/1/4
f 310/1/4 308/1/4 311/1/4
f 309/1/4 310/1/4 313/1/4
f 311/1/4 312/1/4 313/1/4
f 310/1/4 311/1/4 313/1/4
f 313/1/4 312/1/4 314/1/4
f 309/1/4 313/1/4 315/1/4
f 315/1/4 313/1/4 316/1/4
f 309/1/4 315/1/4 318/1/4
f 318/1/4 315/1/4 319/1/4
f 319/1/4 315/1/4 320/1/4
f 317/1/4 318/1/4 321/1/4
f 318/1/4 319/1/4 321/1/4
f 321/1/4 319/1/4 322/1/4
f 317/1/4 321/1/4 323/1/4
f 323/1/4 321/1/4 324/1/4
f 317/1/4 323/1/4 325/1/4
f 325/1/4 323/1/4 326/1/4
f 317/1/4 325/1/4 327/1/4
f 327/1/4 325/1/4 328/1/4
f 317/1/4 327/1/4 329/1/4
f 329/1/4 327/1/4 330/1/4
f 317/1/4 329/1/4 331/1/4
f 331/1/4 329/1/4 332/1/4
f 317/1/4 331/1/4 333/1/4
f 333/1/4 331/1/4 334/1/4
f 317/1/4 333/1/4 335/1/4
f 335/1/4 333/1/4 336/1/4
f 339/1/5 338/1/5 337/1/5
f 340/1/5 338/1/5 339/1/5
f 343/1/5 342/1/5 341/1/5
f 344/1/5 342/1/5 343/1/5
f 347/1/5 346/1/5 345/1/5
f 348/1/5 346/1/5 347/1/5
f 351/1/5 350/1/5 349/1/5
f 352/1/5 350/1/5 351/1/5
f 355/1/5 354/1/5 353/1/5
f 356/1/5 354/1/5 355/1/5
f 359/1/5 358/1/5 357/1/5
f 360/1/5 358/1/5 359/1/5
f 363/1/5 362/1/5 361/1/5
f 364/1/5 362/1/5 363/1/5
f 365/1/6 366/1/6 367/1/6
f 367/1/6 366/1/6 368/1/6
f 369/1/6 370/1/6 371/1/6
f 371/1/6 370/1/6 372/1/6
f 373/1/6 374/1/6 375/1/6
f 375/1/6 374/1/6 376/1/6
f 377/1/6 378/1/6 379/1/6
f 379/1/6 378/1/6 380/1/6
f 381/1/6 382/1/6 383/1/6
f 383/1/6 382/1/6 384/1/6
f 385/1/6 386/1/6 387/1/6
f 387/1/6 386/1/6 388/1/6
f 389/1/6 390/1/6 391/1/6
f 391/1/6 390/1/6 392/1/6
f 393/1/6 394/1/6 395/1/6
f 395/1/6 394/1/6 396/1/6
f 397/1/6 398/1/6 399/1/6
f 399/1/6 398/1/6 400/1/6
f 401/1/6 402/1/6 403/1/6
f 403/1/6 402/1/6 404/1/6
f 405/1/6 406/1/6 407/1/6
f 407/1/6 406/1/6 408/1/6
f 409/1/6 410/1/6 411/1/6
f 411/1/6 410/1/6 412/1/6
f 413/1/6 414/1/6 415/1/6
f 415/1/6 414/1/6 416/1/6
f 417/1/6 418/1/6 419/1/6
f 419/1/6 418/1/6 420/1/6
f 421/1/6 422/1/6 423/1/6
f 423/1/6 422/1/6 424/1/6
f 425/1/6 426/1/6 427/1/6
f 427/1/6 426/1/6 428/1/6
f 429/1/6 430/1/6 431/1/6
f 431/1/6 430/1/6 432/1/6
f 433/1/6 434/1/6 435/1/6
f 435/1/6 434/1/6 436/1/6
f 437/1/6 438/1/6 439/1/6
f 439/1/6 438/1/6 440/1/6
f 441/1/6 442/1/6 443/1/6
f 443/1/6 442/1/6 444/1/6
f 445/1/6 446/1/6 447/1/6
f 447/1/6 446/1/6 448/1/6
f 449/1/6 450/1/6 451/1/6
f 451/1/6 450/1/6 452/1/6
f 453/1/6 454/1/6 455/1/6
f 455/1/6 454/1/6 456/1/6
f 457/1/6 458/1/6 459/1/6
f 459/1/6 458/1/6 460/1/6
f 461/1/6 462/1/6 463/1/6
f 463/1/6 462/1/6 464/1/6
f 465/1/6 466/1/6 467/1/6
f 467/1/6 466/1/6 468/1/6
f 469/1/6 470/1/6 473/1/6
f 473/1/6 470/1/6 474/1/6
f 471/1/6 472/1/6 475/1/6
f 475/1/6 472/1/6 476/1/6
f 477/1/6 478/1/6 479/1/6
f 479/1/6 478/1/6 480/1/6
f 481/1/6 482/1/6 483/1/6
f 483/1/6 482/1/6 484/1/6
f 485/1/6 486/1/6 487/1/6
f 487/1/6 486/1/6 488/1/6
f 489/1/6 490/1/6 491/1/6
f 491/1/6 490/1/6 492/1/6
f 493/1/6 494/1/6 495/1/6
f 495/1/6 494/1/6 496/1/6
f 497/1/6 498/1/6 499/1/6
f 499/1/6 498/1/6 500/1/6
f 501/1/6 502/1/6 503/1/6
f 503/1/6 502/1/6 504/1/6
