# MagicaVoxel @ Ephtracy

# material
mtllib 1.5wall.mtl
usemtl palette

# normals
vn -1 0 0
vn 1 0 0
vn 0 0 1
vn 0 0 -1
vn 0 -1 0
vn 0 1 0

# texcoords
vt 0.865234 0.5

# verts
v 27 0 48
v 27 0 45
v 27 12 48
v 27 12 45
v 33 0 36
v 33 0 33
v 33 12 36
v 33 12 33
v 39 0 48
v 39 0 45
v 39 12 48
v 39 12 45
v 45 0 36
v 45 0 33
v 45 12 36
v 45 12 33
v 27 0 48
v 27 12 48
v 39 0 48
v 39 12 48
v 33 0 36
v 33 12 36
v 45 0 36
v 45 12 36
v 27 0 45
v 27 12 45
v 39 0 45
v 39 12 45
v 33 0 33
v 33 12 33
v 45 0 33
v 45 12 33
v 27 0 48
v 39 0 48
v 27 0 45
v 39 0 45
v 33 0 36
v 45 0 36
v 33 0 33
v 45 0 33
v 27 12 48
v 39 12 48
v 27 12 45
v 39 12 45
v 33 12 36
v 45 12 36
v 33 12 33
v 45 12 33

# faces
f 3/1/1 2/1/1 1/1/1
f 4/1/1 2/1/1 3/1/1
f 7/1/1 6/1/1 5/1/1
f 8/1/1 6/1/1 7/1/1
f 9/1/2 10/1/2 11/1/2
f 11/1/2 10/1/2 12/1/2
f 13/1/2 14/1/2 15/1/2
f 15/1/2 14/1/2 16/1/2
f 19/1/3 18/1/3 17/1/3
f 20/1/3 18/1/3 19/1/3
f 23/1/3 22/1/3 21/1/3
f 24/1/3 22/1/3 23/1/3
f 25/1/4 26/1/4 27/1/4
f 27/1/4 26/1/4 28/1/4
f 29/1/4 30/1/4 31/1/4
f 31/1/4 30/1/4 32/1/4
f 35/1/5 34/1/5 33/1/5
f 36/1/5 34/1/5 35/1/5
f 39/1/5 38/1/5 37/1/5
f 40/1/5 38/1/5 39/1/5
f 41/1/6 42/1/6 43/1/6
f 43/1/6 42/1/6 44/1/6
f 45/1/6 46/1/6 47/1/6
f 47/1/6 46/1/6 48/1/6
