# MagicaVoxel @ Ephtracy

# material
mtllib 1stfloor.mtl
usemtl palette

# normals
vn -1 0 0
vn 1 0 0
vn 0 0 1
vn 0 0 -1
vn 0 -1 0
vn 0 1 0

# texcoords
vt 0.818359 0.5
vt 0.865234 0.5

# verts
v -20 0 17
v -20 0 15
v -20 0 13
v -20 0 11
v -20 1 17
v -20 1 15
v -20 1 13
v -20 1 11
v -18 0 -7
v -18 0 -9
v -18 1 -7
v -18 1 -9
v -6 0 9
v -6 0 7
v -6 1 9
v -6 1 7
v -2 0 13
v -2 0 11
v -2 0 9
v -2 0 5
v -2 0 1
v -2 1 13
v -2 1 11
v -2 1 9
v -2 1 5
v -2 1 1
v -1 0 6
v -1 0 5
v -1 0 1
v -1 0 -0
v -1 1 6
v -1 1 5
v -1 1 1
v -1 1 -0
v 0 0 7
v 0 0 6
v 0 0 -0
v 0 0 -1
v 0 1 7
v 0 1 6
v 0 1 -0
v 0 1 -1
v 1 0 -1
v 1 0 -2
v 1 1 -1
v 1 1 -2
v 2 0 17
v 2 0 15
v 2 0 13
v 2 0 11
v 2 0 9
v 2 0 7
v 2 1 17
v 2 1 15
v 2 1 13
v 2 1 11
v 2 1 9
v 2 1 7
v 12 0 15
v 12 0 13
v 12 0 11
v 12 0 9
v 12 0 7
v 12 0 -3
v 12 0 -5
v 12 0 -7
v 12 0 -9
v 12 0 -11
v 12 0 -17
v 12 0 -19
v 12 1 15
v 12 1 13
v 12 1 11
v 12 1 9
v 12 1 7
v 12 1 -3
v 12 1 -5
v 12 1 -7
v 12 1 -9
v 12 1 -11
v 12 1 -17
v 12 1 -19
v 14 0 3
v 14 0 1
v 14 0 -1
v 14 0 -3
v 14 0 -11
v 14 0 -13
v 14 0 -15
v 14 0 -17
v 14 1 3
v 14 1 1
v 14 1 -1
v 14 1 -3
v 14 1 -11
v 14 1 -13
v 14 1 -15
v 14 1 -17
v 16 0 7
v 16 0 5
v 16 0 3
v 16 1 7
v 16 1 5
v 16 1 3
v -14 0 17
v -14 0 15
v -14 0 13
v -14 0 11
v -14 1 17
v -14 1 15
v -14 1 13
v -14 1 11
v -10 0 -7
v -10 0 -9
v -10 1 -7
v -10 1 -9
v 0 0 15
v 0 0 13
v 0 0 11
v 0 0 9
v 0 0 7
v 0 1 15
v 0 1 13
v 0 1 11
v 0 1 9
v 0 1 7
v 4 0 13
v 4 0 11
v 4 0 9
v 4 0 7
v 4 1 13
v 4 1 11
v 4 1 9
v 4 1 7
v 5 0 -1
v 5 0 -2
v 5 1 -1
v 5 1 -2
v 6 0 15
v 6 0 13
v 6 0 7
v 6 0 6
v 6 0 -0
v 6 0 -1
v 6 1 15
v 6 1 13
v 6 1 7
v 6 1 6
v 6 1 -0
v 6 1 -1
v 7 0 6
v 7 0 5
v 7 0 1
v 7 0 -0
v 7 1 6
v 7 1 5
v 7 1 1
v 7 1 -0
v 8 0 5
v 8 0 1
v 8 1 5
v 8 1 1
v 14 0 -5
v 14 0 -7
v 14 0 -9
v 14 1 -5
v 14 1 -7
v 14 1 -9
v 16 0 1
v 16 0 -1
v 16 0 -3
v 16 0 -5
v 16 0 -9
v 16 0 -11
v 16 0 -13
v 16 0 -15
v 16 0 -17
v 16 0 -19
v 16 1 1
v 16 1 -1
v 16 1 -3
v 16 1 -5
v 16 1 -9
v 16 1 -11
v 16 1 -13
v 16 1 -15
v 16 1 -17
v 16 1 -19
v 18 0 17
v 18 0 15
v 18 0 13
v 18 0 11
v 18 0 9
v 18 0 7
v 18 0 5
v 18 0 3
v 18 0 1
v 18 1 17
v 18 1 15
v 18 1 13
v 18 1 11
v 18 1 9
v 18 1 7
v 18 1 5
v 18 1 3
v 18 1 1
v -20 0 17
v -20 1 17
v -18 0 17
v -18 1 17
v -16 0 17
v -16 1 17
v -14 0 17
v -14 1 17
v 2 0 17
v 2 1 17
v 4 0 17
v 4 1 17
v 6 0 17
v 6 1 17
v 8 0 17
v 8 1 17
v 10 0 17
v 10 1 17
v 12 0 17
v 12 1 17
v 14 0 17
v 14 1 17
v 16 0 17
v 16 1 17
v 18 0 17
v 18 1 17
v -14 0 15
v -14 1 15
v -12 0 15
v -12 1 15
v -10 0 15
v -10 1 15
v -8 0 15
v -8 1 15
v -6 0 15
v -6 1 15
v -4 0 15
v -4 1 15
v -2 0 15
v -2 1 15
v 0 0 15
v 0 1 15
v -6 0 9
v -6 1 9
v -4 0 9
v -4 1 9
v -2 0 9
v -2 1 9
v 0 0 7
v 0 1 7
v 2 0 7
v 2 1 7
v 4 0 7
v 4 1 7
v 6 0 7
v 6 1 7
v -1 0 6
v -1 1 6
v 0 0 6
v 0 1 6
v 6 0 6
v 6 1 6
v 7 0 6
v 7 1 6
v -2 0 5
v -2 1 5
v -1 0 5
v -1 1 5
v 7 0 5
v 7 1 5
v 8 0 5
v 8 1 5
v 14 0 3
v 14 1 3
v 16 0 3
v 16 1 3
v 12 0 -3
v 12 1 -3
v 14 0 -3
v 14 1 -3
v -18 0 -7
v -18 1 -7
v -10 0 -7
v -10 1 -7
v 14 0 -9
v 14 1 -9
v 16 0 -9
v 16 1 -9
v 12 0 -17
v 12 1 -17
v 14 0 -17
v 14 1 -17
v 6 0 15
v 6 1 15
v 8 0 15
v 8 1 15
v 10 0 15
v 10 1 15
v 12 0 15
v 12 1 15
v -14 0 13
v -14 1 13
v -12 0 13
v -12 1 13
v -10 0 13
v -10 1 13
v -8 0 13
v -8 1 13
v -6 0 13
v -6 1 13
v -4 0 13
v -4 1 13
v -2 0 13
v -2 1 13
v 4 0 13
v 4 1 13
v 6 0 13
v 6 1 13
v -20 0 11
v -20 1 11
v -18 0 11
v -18 1 11
v -16 0 11
v -16 1 11
v -14 0 11
v -14 1 11
v -6 0 7
v -6 1 7
v -4 0 7
v -4 1 7
v -2 0 7
v -2 1 7
v 0 0 7
v 0 1 7
v 12 0 7
v 12 1 7
v 14 0 7
v 14 1 7
v 16 0 7
v 16 1 7
v -2 0 1
v -2 1 1
v -1 0 1
v -1 1 1
v 7 0 1
v 7 1 1
v 8 0 1
v 8 1 1
v 16 0 1
v 16 1 1
v 18 0 1
v 18 1 1
v -1 0 -0
v -1 1 -0
v 0 0 -0
v 0 1 -0
v 6 0 -0
v 6 1 -0
v 7 0 -0
v 7 1 -0
v 0 0 -1
v 0 1 -1
v 1 0 -1
v 1 1 -1
v 5 0 -1
v 5 1 -1
v 6 0 -1
v 6 1 -1
v 1 0 -2
v 1 1 -2
v 5 0 -2
v 5 1 -2
v 14 0 -5
v 14 1 -5
v 16 0 -5
v 16 1 -5
v -18 0 -9
v -18 1 -9
v -10 0 -9
v -10 1 -9
v 12 0 -11
v 12 1 -11
v 14 0 -11
v 14 1 -11
v 12 0 -19
v 12 1 -19
v 14 0 -19
v 14 1 -19
v 16 0 -19
v 16 1 -19
v -20 0 17
v -18 0 17
v -16 0 17
v -14 0 17
v 2 0 17
v 4 0 17
v 6 0 17
v 8 0 17
v 10 0 17
v 12 0 17
v 14 0 17
v 16 0 17
v 18 0 17
v -20 0 15
v -18 0 15
v -16 0 15
v -14 0 15
v -12 0 15
v -10 0 15
v -8 0 15
v -6 0 15
v -4 0 15
v -2 0 15
v 0 0 15
v 2 0 15
v 4 0 15
v 6 0 15
v 8 0 15
v 10 0 15
v 12 0 15
v 14 0 15
v 16 0 15
v 18 0 15
v -20 0 13
v -18 0 13
v -16 0 13
v -14 0 13
v -12 0 13
v -10 0 13
v -8 0 13
v -6 0 13
v -4 0 13
v -2 0 13
v 0 0 13
v 2 0 13
v 4 0 13
v 6 0 13
v 12 0 13
v 14 0 13
v 16 0 13
v 18 0 13
v -20 0 11
v -18 0 11
v -16 0 11
v -14 0 11
v -2 0 11
v 0 0 11
v 2 0 11
v 4 0 11
v 12 0 11
v 14 0 11
v 16 0 11
v 18 0 11
v -6 0 9
v -4 0 9
v -2 0 9
v 0 0 9
v 2 0 9
v 4 0 9
v 12 0 9
v 14 0 9
v 16 0 9
v 18 0 9
v -6 0 7
v -4 0 7
v -2 0 7
v 0 0 7
v 2 0 7
v 4 0 7
v 6 0 7
v 12 0 7
v 14 0 7
v 16 0 7
v 18 0 7
v -1 0 6
v 0 0 6
v 6 0 6
v 7 0 6
v -2 0 5
v -1 0 5
v 7 0 5
v 8 0 5
v 16 0 5
v 18 0 5
v 14 0 3
v 16 0 3
v 18 0 3
v -2 0 1
v -1 0 1
v 7 0 1
v 8 0 1
v 14 0 1
v 16 0 1
v 18 0 1
v -1 0 -0
v 0 0 -0
v 6 0 -0
v 7 0 -0
v 0 0 -1
v 1 0 -1
v 5 0 -1
v 6 0 -1
v 14 0 -1
v 16 0 -1
v 1 0 -2
v 5 0 -2
v 12 0 -3
v 14 0 -3
v 16 0 -3
v 12 0 -5
v 14 0 -5
v 16 0 -5
v -18 0 -7
v -10 0 -7
v 12 0 -7
v 14 0 -7
v -18 0 -9
v -10 0 -9
v 12 0 -9
v 14 0 -9
v 16 0 -9
v 12 0 -11
v 14 0 -11
v 16 0 -11
v 14 0 -13
v 16 0 -13
v 14 0 -15
v 16 0 -15
v 12 0 -17
v 14 0 -17
v 16 0 -17
v 12 0 -19
v 14 0 -19
v 16 0 -19
v -20 1 17
v -18 1 17
v -16 1 17
v -14 1 17
v 2 1 17
v 4 1 17
v 6 1 17
v 8 1 17
v 10 1 17
v 12 1 17
v 14 1 17
v 16 1 17
v 18 1 17
v -20 1 15
v -18 1 15
v -16 1 15
v -14 1 15
v -12 1 15
v -10 1 15
v -8 1 15
v -6 1 15
v -4 1 15
v -2 1 15
v 0 1 15
v 2 1 15
v 4 1 15
v 6 1 15
v 8 1 15
v 10 1 15
v 12 1 15
v 14 1 15
v 16 1 15
v 18 1 15
v -20 1 13
v -18 1 13
v -16 1 13
v -14 1 13
v -12 1 13
v -10 1 13
v -8 1 13
v -6 1 13
v -4 1 13
v -2 1 13
v 0 1 13
v 2 1 13
v 4 1 13
v 6 1 13
v 12 1 13
v 14 1 13
v 16 1 13
v 18 1 13
v -20 1 11
v -18 1 11
v -16 1 11
v -14 1 11
v -2 1 11
v 0 1 11
v 2 1 11
v 4 1 11
v 12 1 11
v 14 1 11
v 16 1 11
v 18 1 11
v -6 1 9
v -4 1 9
v -2 1 9
v 0 1 9
v 2 1 9
v 4 1 9
v 12 1 9
v 14 1 9
v 16 1 9
v 18 1 9
v -6 1 7
v -4 1 7
v -2 1 7
v 0 1 7
v 2 1 7
v 4 1 7
v 6 1 7
v 12 1 7
v 14 1 7
v 16 1 7
v 18 1 7
v -1 1 6
v 0 1 6
v 6 1 6
v 7 1 6
v -2 1 5
v -1 1 5
v 7 1 5
v 8 1 5
v 16 1 5
v 18 1 5
v 14 1 3
v 16 1 3
v 18 1 3
v -2 1 1
v -1 1 1
v 7 1 1
v 8 1 1
v 14 1 1
v 16 1 1
v 18 1 1
v -1 1 -0
v 0 1 -0
v 6 1 -0
v 7 1 -0
v 0 1 -1
v 1 1 -1
v 5 1 -1
v 6 1 -1
v 14 1 -1
v 16 1 -1
v 1 1 -2
v 5 1 -2
v 12 1 -3
v 14 1 -3
v 16 1 -3
v 12 1 -5
v 14 1 -5
v 16 1 -5
v -18 1 -7
v -10 1 -7
v 12 1 -7
v 14 1 -7
v -18 1 -9
v -10 1 -9
v 12 1 -9
v 14 1 -9
v 16 1 -9
v 12 1 -11
v 14 1 -11
v 16 1 -11
v 14 1 -13
v 16 1 -13
v 14 1 -15
v 16 1 -15
v 12 1 -17
v 14 1 -17
v 16 1 -17
v 12 1 -19
v 14 1 -19
v 16 1 -19

# faces
f 5/1/1 2/1/1 1/1/1
f 6/2/1 3/2/1 2/2/1
f 6/1/1 2/1/1 5/1/1
f 7/1/1 4/1/1 3/1/1
f 7/2/1 3/2/1 6/2/1
f 8/1/1 4/1/1 7/1/1
f 11/2/1 10/2/1 9/2/1
f 12/2/1 10/2/1 11/2/1
f 15/2/1 14/2/1 13/2/1
f 16/2/1 14/2/1 15/2/1
f 22/2/1 18/2/1 17/2/1
f 23/1/1 19/1/1 18/1/1
f 23/2/1 18/2/1 22/2/1
f 24/1/1 19/1/1 23/1/1
f 25/2/1 21/2/1 20/2/1
f 26/2/1 21/2/1 25/2/1
f 31/2/1 28/2/1 27/2/1
f 32/2/1 28/2/1 31/2/1
f 33/2/1 30/2/1 29/2/1
f 34/2/1 30/2/1 33/2/1
f 39/2/1 36/2/1 35/2/1
f 40/2/1 36/2/1 39/2/1
f 41/2/1 38/2/1 37/2/1
f 42/2/1 38/2/1 41/2/1
f 45/2/1 44/2/1 43/2/1
f 46/2/1 44/2/1 45/2/1
f 53/2/1 48/2/1 47/2/1
f 54/1/1 49/1/1 48/1/1
f 54/2/1 48/2/1 53/2/1
f 55/2/1 50/2/1 49/2/1
f 55/1/1 49/1/1 54/1/1
f 56/1/1 51/1/1 50/1/1
f 56/2/1 50/2/1 55/2/1
f 57/2/1 52/2/1 51/2/1
f 57/1/1 51/1/1 56/1/1
f 58/2/1 52/2/1 57/2/1
f 71/2/1 60/2/1 59/2/1
f 72/1/1 61/1/1 60/1/1
f 72/2/1 60/2/1 71/2/1
f 73/2/1 62/2/1 61/2/1
f 73/1/1 61/1/1 72/1/1
f 74/1/1 63/1/1 62/1/1
f 74/2/1 62/2/1 73/2/1
f 75/1/1 63/1/1 74/1/1
f 76/1/1 65/1/1 64/1/1
f 77/2/1 66/2/1 65/2/1
f 77/1/1 65/1/1 76/1/1
f 78/1/1 67/1/1 66/1/1
f 78/2/1 66/2/1 77/2/1
f 79/2/1 68/2/1 67/2/1
f 79/1/1 67/1/1 78/1/1
f 80/2/1 68/2/1 79/2/1
f 81/2/1 70/2/1 69/2/1
f 82/2/1 70/2/1 81/2/1
f 91/1/1 84/1/1 83/1/1
f 92/2/1 85/2/1 84/2/1
f 92/1/1 84/1/1 91/1/1
f 93/1/1 86/1/1 85/1/1
f 93/2/1 85/2/1 92/2/1
f 94/1/1 86/1/1 93/1/1
f 95/2/1 88/2/1 87/2/1
f 96/1/1 89/1/1 88/1/1
f 96/2/1 88/2/1 95/2/1
f 97/2/1 90/2/1 89/2/1
f 97/1/1 89/1/1 96/1/1
f 98/2/1 90/2/1 97/2/1
f 102/2/1 100/2/1 99/2/1
f 103/1/1 101/1/1 100/1/1
f 103/2/1 100/2/1 102/2/1
f 104/1/1 101/1/1 103/1/1
f 105/1/2 106/1/2 109/1/2
f 109/1/2 106/1/2 110/1/2
f 107/1/2 108/1/2 111/1/2
f 111/1/2 108/1/2 112/1/2
f 113/2/2 114/2/2 115/2/2
f 115/2/2 114/2/2 116/2/2
f 117/1/2 118/1/2 122/1/2
f 118/2/2 119/2/2 123/2/2
f 122/1/2 118/1/2 123/1/2
f 119/1/2 120/1/2 124/1/2
f 123/2/2 119/2/2 124/2/2
f 120/2/2 121/2/2 125/2/2
f 124/1/2 120/1/2 125/1/2
f 125/2/2 121/2/2 126/2/2
f 127/2/2 128/2/2 131/2/2
f 128/1/2 129/1/2 132/1/2
f 131/2/2 128/2/2 132/2/2
f 129/2/2 130/2/2 133/2/2
f 132/1/2 129/1/2 133/1/2
f 133/2/2 130/2/2 134/2/2
f 135/2/2 136/2/2 137/2/2
f 137/2/2 136/2/2 138/2/2
f 139/2/2 140/2/2 145/2/2
f 145/2/2 140/2/2 146/2/2
f 141/2/2 142/2/2 147/2/2
f 147/2/2 142/2/2 148/2/2
f 143/2/2 144/2/2 149/2/2
f 149/2/2 144/2/2 150/2/2
f 151/2/2 152/2/2 155/2/2
f 155/2/2 152/2/2 156/2/2
f 153/2/2 154/2/2 157/2/2
f 157/2/2 154/2/2 158/2/2
f 159/2/2 160/2/2 161/2/2
f 161/2/2 160/2/2 162/2/2
f 163/2/2 164/2/2 166/2/2
f 164/1/2 165/1/2 167/1/2
f 166/2/2 164/2/2 167/2/2
f 167/1/2 165/1/2 168/1/2
f 169/2/2 170/2/2 179/2/2
f 170/1/2 171/1/2 180/1/2
f 179/2/2 170/2/2 180/2/2
f 171/2/2 172/2/2 181/2/2
f 180/1/2 171/1/2 181/1/2
f 181/2/2 172/2/2 182/2/2
f 173/1/2 174/1/2 183/1/2
f 174/2/2 175/2/2 184/2/2
f 183/1/2 174/1/2 184/1/2
f 175/1/2 176/1/2 185/1/2
f 184/2/2 175/2/2 185/2/2
f 176/2/2 177/2/2 186/2/2
f 185/1/2 176/1/2 186/1/2
f 177/1/2 178/1/2 187/1/2
f 186/2/2 177/2/2 187/2/2
f 187/1/2 178/1/2 188/1/2
f 189/1/2 190/1/2 198/1/2
f 190/2/2 191/2/2 199/2/2
f 198/1/2 190/1/2 199/1/2
f 191/1/2 192/1/2 200/1/2
f 199/2/2 191/2/2 200/2/2
f 192/2/2 193/2/2 201/2/2
f 200/1/2 192/1/2 201/1/2
f 193/1/2 194/1/2 202/1/2
f 201/2/2 193/2/2 202/2/2
f 194/2/2 195/2/2 203/2/2
f 202/1/2 194/1/2 203/1/2
f 195/1/2 196/1/2 204/1/2
f 203/2/2 195/2/2 204/2/2
f 196/2/2 197/2/2 205/2/2
f 204/1/2 196/1/2 205/1/2
f 205/2/2 197/2/2 206/2/2
f 209/1/3 208/1/3 207/1/3
f 210/1/3 208/1/3 209/1/3
f 211/2/3 210/2/3 209/2/3
f 212/2/3 210/2/3 211/2/3
f 213/1/3 212/1/3 211/1/3
f 214/1/3 212/1/3 213/1/3
f 217/2/3 216/2/3 215/2/3
f 218/2/3 216/2/3 217/2/3
f 219/1/3 218/1/3 217/1/3
f 220/1/3 218/1/3 219/1/3
f 221/2/3 220/2/3 219/2/3
f 222/2/3 220/2/3 221/2/3
f 223/1/3 222/1/3 221/1/3
f 224/1/3 222/1/3 223/1/3
f 225/2/3 224/2/3 223/2/3
f 226/2/3 224/2/3 225/2/3
f 227/1/3 226/1/3 225/1/3
f 228/1/3 226/1/3 227/1/3
f 229/2/3 228/2/3 227/2/3
f 230/2/3 228/2/3 229/2/3
f 231/1/3 230/1/3 229/1/3
f 232/1/3 230/1/3 231/1/3
f 235/1/3 234/1/3 233/1/3
f 236/1/3 234/1/3 235/1/3
f 237/2/3 236/2/3 235/2/3
f 238/2/3 236/2/3 237/2/3
f 239/1/3 238/1/3 237/1/3
f 240/1/3 238/1/3 239/1/3
f 241/2/3 240/2/3 239/2/3
f 242/2/3 240/2/3 241/2/3
f 243/1/3 242/1/3 241/1/3
f 244/1/3 242/1/3 243/1/3
f 245/2/3 244/2/3 243/2/3
f 246/2/3 244/2/3 245/2/3
f 247/1/3 246/1/3 245/1/3
f 248/1/3 246/1/3 247/1/3
f 251/2/3 250/2/3 249/2/3
f 252/2/3 250/2/3 251/2/3
f 253/1/3 252/1/3 251/1/3
f 254/1/3 252/1/3 253/1/3
f 257/2/3 256/2/3 255/2/3
f 258/2/3 256/2/3 257/2/3
f 261/2/3 260/2/3 259/2/3
f 262/2/3 260/2/3 261/2/3
f 265/2/3 264/2/3 263/2/3
f 266/2/3 264/2/3 265/2/3
f 269/2/3 268/2/3 267/2/3
f 270/2/3 268/2/3 269/2/3
f 273/2/3 272/2/3 271/2/3
f 274/2/3 272/2/3 273/2/3
f 277/2/3 276/2/3 275/2/3
f 278/2/3 276/2/3 277/2/3
f 281/1/3 280/1/3 279/1/3
f 282/1/3 280/1/3 281/1/3
f 285/1/3 284/1/3 283/1/3
f 286/1/3 284/1/3 285/1/3
f 289/2/3 288/2/3 287/2/3
f 290/2/3 288/2/3 289/2/3
f 293/1/3 292/1/3 291/1/3
f 294/1/3 292/1/3 293/1/3
f 297/2/3 296/2/3 295/2/3
f 298/2/3 296/2/3 297/2/3
f 299/2/4 300/2/4 301/2/4
f 301/2/4 300/2/4 302/2/4
f 301/1/4 302/1/4 303/1/4
f 303/1/4 302/1/4 304/1/4
f 303/2/4 304/2/4 305/2/4
f 305/2/4 304/2/4 306/2/4
f 307/1/4 308/1/4 309/1/4
f 309/1/4 308/1/4 310/1/4
f 309/2/4 310/2/4 311/2/4
f 311/2/4 310/2/4 312/2/4
f 311/1/4 312/1/4 313/1/4
f 313/1/4 312/1/4 314/1/4
f 313/2/4 314/2/4 315/2/4
f 315/2/4 314/2/4 316/2/4
f 315/1/4 316/1/4 317/1/4
f 317/1/4 316/1/4 318/1/4
f 317/2/4 318/2/4 319/2/4
f 319/2/4 318/2/4 320/2/4
f 321/2/4 322/2/4 323/2/4
f 323/2/4 322/2/4 324/2/4
f 325/1/4 326/1/4 327/1/4
f 327/1/4 326/1/4 328/1/4
f 327/2/4 328/2/4 329/2/4
f 329/2/4 328/2/4 330/2/4
f 329/1/4 330/1/4 331/1/4
f 331/1/4 330/1/4 332/1/4
f 333/2/4 334/2/4 335/2/4
f 335/2/4 334/2/4 336/2/4
f 335/1/4 336/1/4 337/1/4
f 337/1/4 336/1/4 338/1/4
f 337/2/4 338/2/4 339/2/4
f 339/2/4 338/2/4 340/2/4
f 341/1/4 342/1/4 343/1/4
f 343/1/4 342/1/4 344/1/4
f 343/2/4 344/2/4 345/2/4
f 345/2/4 344/2/4 346/2/4
f 347/2/4 348/2/4 349/2/4
f 349/2/4 348/2/4 350/2/4
f 351/2/4 352/2/4 353/2/4
f 353/2/4 352/2/4 354/2/4
f 355/2/4 356/2/4 357/2/4
f 357/2/4 356/2/4 358/2/4
f 359/2/4 360/2/4 361/2/4
f 361/2/4 360/2/4 362/2/4
f 363/2/4 364/2/4 365/2/4
f 365/2/4 364/2/4 366/2/4
f 367/2/4 368/2/4 369/2/4
f 369/2/4 368/2/4 370/2/4
f 371/2/4 372/2/4 373/2/4
f 373/2/4 372/2/4 374/2/4
f 375/2/4 376/2/4 377/2/4
f 377/2/4 376/2/4 378/2/4
f 379/2/4 380/2/4 381/2/4
f 381/2/4 380/2/4 382/2/4
f 383/2/4 384/2/4 385/2/4
f 385/2/4 384/2/4 386/2/4
f 387/2/4 388/2/4 389/2/4
f 389/2/4 388/2/4 390/2/4
f 391/2/4 392/2/4 393/2/4
f 393/2/4 392/2/4 394/2/4
f 393/1/4 394/1/4 395/1/4
f 395/1/4 394/1/4 396/1/4
f 410/1/5 398/1/5 397/1/5
f 411/2/5 399/2/5 398/2/5
f 411/1/5 398/1/5 410/1/5
f 412/1/5 400/1/5 399/1/5
f 412/2/5 399/2/5 411/2/5
f 413/1/5 400/1/5 412/1/5
f 421/2/5 402/2/5 401/2/5
f 422/1/5 403/1/5 402/1/5
f 422/2/5 402/2/5 421/2/5
f 423/2/5 404/2/5 403/2/5
f 423/1/5 403/1/5 422/1/5
f 424/1/5 405/1/5 404/1/5
f 424/2/5 404/2/5 423/2/5
f 425/2/5 406/2/5 405/2/5
f 425/1/5 405/1/5 424/1/5
f 426/1/5 407/1/5 406/1/5
f 426/2/5 406/2/5 425/2/5
f 427/2/5 408/2/5 407/2/5
f 427/1/5 407/1/5 426/1/5
f 428/1/5 409/1/5 408/1/5
f 428/2/5 408/2/5 427/2/5
f 429/1/5 409/1/5 428/1/5
f 430/2/5 411/2/5 410/2/5
f 431/1/5 412/1/5 411/1/5
f 431/2/5 411/2/5 430/2/5
f 432/2/5 413/2/5 412/2/5
f 432/1/5 412/1/5 431/1/5
f 433/1/5 414/1/5 413/1/5
f 433/2/5 413/2/5 432/2/5
f 434/2/5 415/2/5 414/2/5
f 434/1/5 414/1/5 433/1/5
f 435/1/5 416/1/5 415/1/5
f 435/2/5 415/2/5 434/2/5
f 436/2/5 417/2/5 416/2/5
f 436/1/5 416/1/5 435/1/5
f 437/1/5 418/1/5 417/1/5
f 437/2/5 417/2/5 436/2/5
f 438/2/5 419/2/5 418/2/5
f 438/1/5 418/1/5 437/1/5
f 439/1/5 420/1/5 419/1/5
f 439/2/5 419/2/5 438/2/5
f 440/1/5 420/1/5 439/1/5
f 441/1/5 422/1/5 421/1/5
f 442/2/5 423/2/5 422/2/5
f 442/1/5 422/1/5 441/1/5
f 443/2/5 423/2/5 442/2/5
f 444/2/5 427/2/5 426/2/5
f 445/1/5 428/1/5 427/1/5
f 445/2/5 427/2/5 444/2/5
f 446/2/5 429/2/5 428/2/5
f 446/1/5 428/1/5 445/1/5
f 447/2/5 429/2/5 446/2/5
f 448/1/5 431/1/5 430/1/5
f 449/2/5 432/2/5 431/2/5
f 449/1/5 431/1/5 448/1/5
f 450/1/5 433/1/5 432/1/5
f 450/2/5 432/2/5 449/2/5
f 451/1/5 433/1/5 450/1/5
f 452/2/5 440/2/5 439/2/5
f 453/2/5 440/2/5 452/2/5
f 454/2/5 442/2/5 441/2/5
f 455/2/5 442/2/5 454/2/5
f 456/1/5 445/1/5 444/1/5
f 457/2/5 446/2/5 445/2/5
f 457/1/5 445/1/5 456/1/5
f 458/1/5 447/1/5 446/1/5
f 458/2/5 446/2/5 457/2/5
f 459/1/5 447/1/5 458/1/5
f 462/1/5 453/1/5 452/1/5
f 463/1/5 453/1/5 462/1/5
f 464/1/5 455/1/5 454/1/5
f 465/1/5 455/1/5 464/1/5
f 466/2/5 457/2/5 456/2/5
f 467/1/5 458/1/5 457/1/5
f 467/2/5 457/2/5 466/2/5
f 468/2/5 459/2/5 458/2/5
f 468/1/5 458/1/5 467/1/5
f 469/2/5 459/2/5 468/2/5
f 470/2/5 461/2/5 460/2/5
f 471/1/5 462/1/5 461/1/5
f 471/2/5 461/2/5 470/2/5
f 472/2/5 463/2/5 462/2/5
f 472/1/5 462/1/5 471/1/5
f 473/2/5 463/2/5 472/2/5
f 474/2/5 465/2/5 464/2/5
f 475/2/5 465/2/5 474/2/5
f 477/1/5 467/1/5 466/1/5
f 478/2/5 468/2/5 467/2/5
f 478/1/5 467/1/5 477/1/5
f 479/1/5 469/1/5 468/1/5
f 479/2/5 468/2/5 478/2/5
f 480/1/5 469/1/5 479/1/5
f 482/2/5 476/2/5 475/2/5
f 482/2/5 475/2/5 474/2/5
f 482/2/5 474/2/5 473/2/5
f 483/2/5 476/2/5 482/2/5
f 486/2/5 482/2/5 481/2/5
f 486/2/5 484/2/5 483/2/5
f 486/2/5 483/2/5 482/2/5
f 487/2/5 484/2/5 486/2/5
f 489/2/5 480/2/5 479/2/5
f 490/2/5 480/2/5 489/2/5
f 492/1/5 490/1/5 489/1/5
f 493/1/5 490/1/5 492/1/5
f 494/2/5 488/2/5 487/2/5
f 494/2/5 486/2/5 485/2/5
f 494/2/5 487/2/5 486/2/5
f 495/2/5 488/2/5 494/2/5
f 496/2/5 488/2/5 495/2/5
f 497/2/5 488/2/5 496/2/5
f 498/1/5 492/1/5 491/1/5
f 499/2/5 493/2/5 492/2/5
f 499/1/5 492/1/5 498/1/5
f 500/2/5 493/2/5 499/2/5
f 501/2/5 496/2/5 495/2/5
f 502/2/5 496/2/5 501/2/5
f 503/2/5 496/2/5 502/2/5
f 504/2/5 496/2/5 503/2/5
f 505/2/5 503/2/5 502/2/5
f 506/2/5 503/2/5 505/2/5
f 507/2/5 503/2/5 506/2/5
f 508/2/5 503/2/5 507/2/5
f 509/2/5 499/2/5 498/2/5
f 510/2/5 499/2/5 509/2/5
f 511/2/5 507/2/5 506/2/5
f 512/2/5 507/2/5 511/2/5
f 514/1/5 510/1/5 509/1/5
f 515/1/5 510/1/5 514/1/5
f 516/1/5 514/1/5 513/1/5
f 517/2/5 515/2/5 514/2/5
f 517/1/5 514/1/5 516/1/5
f 518/2/5 515/2/5 517/2/5
f 521/2/5 517/2/5 516/2/5
f 522/2/5 517/2/5 521/2/5
f 523/2/5 520/2/5 519/2/5
f 524/2/5 520/2/5 523/2/5
f 525/1/5 522/1/5 521/1/5
f 526/1/5 522/1/5 525/1/5
f 528/2/5 526/2/5 525/2/5
f 529/1/5 527/1/5 526/1/5
f 529/2/5 526/2/5 528/2/5
f 530/1/5 527/1/5 529/1/5
f 531/2/5 530/2/5 529/2/5
f 532/2/5 530/2/5 531/2/5
f 533/1/5 532/1/5 531/1/5
f 534/1/5 532/1/5 533/1/5
f 536/2/5 534/2/5 533/2/5
f 537/2/5 534/2/5 536/2/5
f 538/2/5 536/2/5 535/2/5
f 539/1/5 537/1/5 536/1/5
f 539/2/5 536/2/5 538/2/5
f 540/1/5 537/1/5 539/1/5
f 541/1/6 542/1/6 554/1/6
f 542/2/6 543/2/6 555/2/6
f 554/1/6 542/1/6 555/1/6
f 543/1/6 544/1/6 556/1/6
f 555/2/6 543/2/6 556/2/6
f 556/1/6 544/1/6 557/1/6
f 545/2/6 546/2/6 565/2/6
f 546/1/6 547/1/6 566/1/6
f 565/2/6 546/2/6 566/2/6
f 547/2/6 548/2/6 567/2/6
f 566/1/6 547/1/6 567/1/6
f 548/1/6 549/1/6 568/1/6
f 567/2/6 548/2/6 568/2/6
f 549/2/6 550/2/6 569/2/6
f 568/1/6 549/1/6 569/1/6
f 550/1/6 551/1/6 570/1/6
f 569/2/6 550/2/6 570/2/6
f 551/2/6 552/2/6 571/2/6
f 570/1/6 551/1/6 571/1/6
f 552/1/6 553/1/6 572/1/6
f 571/2/6 552/2/6 572/2/6
f 572/1/6 553/1/6 573/1/6
f 554/2/6 555/2/6 574/2/6
f 555/1/6 556/1/6 575/1/6
f 574/2/6 555/2/6 575/2/6
f 556/2/6 557/2/6 576/2/6
f 575/1/6 556/1/6 576/1/6
f 557/1/6 558/1/6 577/1/6
f 576/2/6 557/2/6 577/2/6
f 558/2/6 559/2/6 578/2/6
f 577/1/6 558/1/6 578/1/6
f 559/1/6 560/1/6 579/1/6
f 578/2/6 559/2/6 579/2/6
f 560/2/6 561/2/6 580/2/6
f 579/1/6 560/1/6 580/1/6
f 561/1/6 562/1/6 581/1/6
f 580/2/6 561/2/6 581/2/6
f 562/2/6 563/2/6 582/2/6
f 581/1/6 562/1/6 582/1/6
f 563/1/6 564/1/6 583/1/6
f 582/2/6 563/2/6 583/2/6
f 583/1/6 564/1/6 584/1/6
f 565/1/6 566/1/6 585/1/6
f 566/2/6 567/2/6 586/2/6
f 585/1/6 566/1/6 586/1/6
f 586/2/6 567/2/6 587/2/6
f 570/2/6 571/2/6 588/2/6
f 571/1/6 572/1/6 589/1/6
f 588/2/6 571/2/6 589/2/6
f 572/2/6 573/2/6 590/2/6
f 589/1/6 572/1/6 590/1/6
f 590/2/6 573/2/6 591/2/6
f 574/1/6 575/1/6 592/1/6
f 575/2/6 576/2/6 593/2/6
f 592/1/6 575/1/6 593/1/6
f 576/1/6 577/1/6 594/1/6
f 593/2/6 576/2/6 594/2/6
f 594/1/6 577/1/6 595/1/6
f 583/2/6 584/2/6 596/2/6
f 596/2/6 584/2/6 597/2/6
f 585/2/6 586/2/6 598/2/6
f 598/2/6 586/2/6 599/2/6
f 588/1/6 589/1/6 600/1/6
f 589/2/6 590/2/6 601/2/6
f 600/1/6 589/1/6 601/1/6
f 590/1/6 591/1/6 602/1/6
f 601/2/6 590/2/6 602/2/6
f 602/1/6 591/1/6 603/1/6
f 596/1/6 597/1/6 606/1/6
f 606/1/6 597/1/6 607/1/6
f 598/1/6 599/1/6 608/1/6
f 608/1/6 599/1/6 609/1/6
f 600/2/6 601/2/6 610/2/6
f 601/1/6 602/1/6 611/1/6
f 610/2/6 601/2/6 611/2/6
f 602/2/6 603/2/6 612/2/6
f 611/1/6 602/1/6 612/1/6
f 612/2/6 603/2/6 613/2/6
f 604/2/6 605/2/6 614/2/6
f 605/1/6 606/1/6 615/1/6
f 614/2/6 605/2/6 615/2/6
f 606/2/6 607/2/6 616/2/6
f 615/1/6 606/1/6 616/1/6
f 616/2/6 607/2/6 617/2/6
f 608/2/6 609/2/6 618/2/6
f 618/2/6 609/2/6 619/2/6
f 610/1/6 611/1/6 621/1/6
f 611/2/6 612/2/6 622/2/6
f 621/1/6 611/1/6 622/1/6
f 612/1/6 613/1/6 623/1/6
f 622/2/6 612/2/6 623/2/6
f 623/1/6 613/1/6 624/1/6
f 619/2/6 620/2/6 626/2/6
f 618/2/6 619/2/6 626/2/6
f 617/2/6 618/2/6 626/2/6
f 626/2/6 620/2/6 627/2/6
f 625/2/6 626/2/6 630/2/6
f 627/2/6 628/2/6 630/2/6
f 626/2/6 627/2/6 630/2/6
f 630/2/6 628/2/6 631/2/6
f 623/2/6 624/2/6 633/2/6
f 633/2/6 624/2/6 634/2/6
f 633/1/6 634/1/6 636/1/6
f 636/1/6 634/1/6 637/1/6
f 631/2/6 632/2/6 638/2/6
f 629/2/6 630/2/6 638/2/6
f 630/2/6 631/2/6 638/2/6
f 638/2/6 632/2/6 639/2/6
f 639/2/6 632/2/6 640/2/6
f 640/2/6 632/2/6 641/2/6
f 635/1/6 636/1/6 642/1/6
f 636/2/6 637/2/6 643/2/6
f 642/1/6 636/1/6 643/1/6
f 643/2/6 637/2/6 644/2/6
f 639/2/6 640/2/6 645/2/6
f 645/2/6 640/2/6 646/2/6
f 646/2/6 640/2/6 647/2/6
f 647/2/6 640/2/6 648/2/6
f 646/2/6 647/2/6 649/2/6
f 649/2/6 647/2/6 650/2/6
f 650/2/6 647/2/6 651/2/6
f 651/2/6 647/2/6 652/2/6
f 642/2/6 643/2/6 653/2/6
f 653/2/6 643/2/6 654/2/6
f 650/2/6 651/2/6 655/2/6
f 655/2/6 651/2/6 656/2/6
f 653/1/6 654/1/6 658/1/6
f 658/1/6 654/1/6 659/1/6
f 657/1/6 658/1/6 660/1/6
f 658/2/6 659/2/6 661/2/6
f 660/1/6 658/1/6 661/1/6
f 661/2/6 659/2/6 662/2/6
f 660/2/6 661/2/6 665/2/6
f 665/2/6 661/2/6 666/2/6
f 663/2/6 664/2/6 667/2/6
f 667/2/6 664/2/6 668/2/6
f 665/1/6 666/1/6 669/1/6
f 669/1/6 666/1/6 670/1/6
f 669/2/6 670/2/6 672/2/6
f 670/1/6 671/1/6 673/1/6
f 672/2/6 670/2/6 673/2/6
f 673/1/6 671/1/6 674/1/6
f 673/2/6 674/2/6 675/2/6
f 675/2/6 674/2/6 676/2/6
f 675/1/6 676/1/6 677/1/6
f 677/1/6 676/1/6 678/1/6
f 677/2/6 678/2/6 680/2/6
f 680/2/6 678/2/6 681/2/6
f 679/2/6 680/2/6 682/2/6
f 680/1/6 681/1/6 683/1/6
f 682/2/6 680/2/6 683/2/6
f 683/1/6 681/1/6 684/1/6
