# MagicaVoxel @ Ephtracy

# material
mtllib 2.5stair.mtl
usemtl palette

# normals
vn -1 0 0
vn 1 0 0
vn 0 0 1
vn 0 0 -1
vn 0 -1 0
vn 0 1 0

# texcoords
vt 0.865234 0.5

# verts
v -29 1 -10
v -29 1 -16
v -29 2 -10
v -29 2 -16
v -28 2 -10
v -28 2 -16
v -28 3 -10
v -28 3 -16
v -27 3 -10
v -27 3 -16
v -27 4 -10
v -27 4 -16
v -26 4 -10
v -26 4 -16
v -26 5 -10
v -26 5 -16
v -25 5 -10
v -25 5 -16
v -25 6 -10
v -25 6 -16
v -24 6 -10
v -24 6 -16
v -24 7 -10
v -24 7 -16
v -23 7 -10
v -23 7 -16
v -23 8 -10
v -23 8 -16
v -22 8 -10
v -22 8 -16
v -22 9 -10
v -22 9 -16
v -21 9 -10
v -21 9 -16
v -21 10 -10
v -21 10 -16
v -20 10 -10
v -20 10 -16
v -20 11 -10
v -20 11 -16
v -19 11 -10
v -19 11 -16
v -19 12 -10
v -19 12 -16
v -21 1 -10
v -21 1 -16
v -21 4 -10
v -21 4 -16
v -18 4 -10
v -18 4 -16
v -18 7 -10
v -18 7 -16
v -18 10 -10
v -18 10 -16
v -18 12 -10
v -18 12 -16
v -15 7 -10
v -15 7 -16
v -15 10 -10
v -15 10 -16
v -29 1 -10
v -29 2 -10
v -28 2 -10
v -28 3 -10
v -27 3 -10
v -27 4 -10
v -26 4 -10
v -26 5 -10
v -25 5 -10
v -25 6 -10
v -24 6 -10
v -24 7 -10
v -23 7 -10
v -23 8 -10
v -22 8 -10
v -22 9 -10
v -21 1 -10
v -21 4 -10
v -21 9 -10
v -21 10 -10
v -20 10 -10
v -20 11 -10
v -19 11 -10
v -19 12 -10
v -18 4 -10
v -18 7 -10
v -18 10 -10
v -18 12 -10
v -15 7 -10
v -15 10 -10
v -29 1 -16
v -29 2 -16
v -28 2 -16
v -28 3 -16
v -27 3 -16
v -27 4 -16
v -26 4 -16
v -26 5 -16
v -25 5 -16
v -25 6 -16
v -24 6 -16
v -24 7 -16
v -23 7 -16
v -23 8 -16
v -22 8 -16
v -22 9 -16
v -21 1 -16
v -21 4 -16
v -21 9 -16
v -21 10 -16
v -20 10 -16
v -20 11 -16
v -19 11 -16
v -19 12 -16
v -18 4 -16
v -18 7 -16
v -18 10 -16
v -18 12 -16
v -15 7 -16
v -15 10 -16
v -29 1 -10
v -21 1 -10
v -29 1 -16
v -21 1 -16
v -21 4 -10
v -18 4 -10
v -21 4 -16
v -18 4 -16
v -18 7 -10
v -15 7 -10
v -18 7 -16
v -15 7 -16
v -29 2 -10
v -28 2 -10
v -29 2 -16
v -28 2 -16
v -28 3 -10
v -27 3 -10
v -28 3 -16
v -27 3 -16
v -27 4 -10
v -26 4 -10
v -27 4 -16
v -26 4 -16
v -26 5 -10
v -25 5 -10
v -26 5 -16
v -25 5 -16
v -25 6 -10
v -24 6 -10
v -25 6 -16
v -24 6 -16
v -24 7 -10
v -23 7 -10
v -24 7 -16
v -23 7 -16
v -23 8 -10
v -22 8 -10
v -23 8 -16
v -22 8 -16
v -22 9 -10
v -21 9 -10
v -22 9 -16
v -21 9 -16
v -21 10 -10
v -20 10 -10
v -18 10 -10
v -15 10 -10
v -21 10 -16
v -20 10 -16
v -18 10 -16
v -15 10 -16
v -20 11 -10
v -19 11 -10
v -20 11 -16
v -19 11 -16
v -19 12 -10
v -18 12 -10
v -19 12 -16
v -18 12 -16

# faces
f 3/1/1 2/1/1 1/1/1
f 4/1/1 2/1/1 3/1/1
f 7/1/1 6/1/1 5/1/1
f 8/1/1 6/1/1 7/1/1
f 11/1/1 10/1/1 9/1/1
f 12/1/1 10/1/1 11/1/1
f 15/1/1 14/1/1 13/1/1
f 16/1/1 14/1/1 15/1/1
f 19/1/1 18/1/1 17/1/1
f 20/1/1 18/1/1 19/1/1
f 23/1/1 22/1/1 21/1/1
f 24/1/1 22/1/1 23/1/1
f 27/1/1 26/1/1 25/1/1
f 28/1/1 26/1/1 27/1/1
f 31/1/1 30/1/1 29/1/1
f 32/1/1 30/1/1 31/1/1
f 35/1/1 34/1/1 33/1/1
f 36/1/1 34/1/1 35/1/1
f 39/1/1 38/1/1 37/1/1
f 40/1/1 38/1/1 39/1/1
f 43/1/1 42/1/1 41/1/1
f 44/1/1 42/1/1 43/1/1
f 45/1/2 46/1/2 47/1/2
f 47/1/2 46/1/2 48/1/2
f 49/1/2 50/1/2 51/1/2
f 51/1/2 50/1/2 52/1/2
f 53/1/2 54/1/2 55/1/2
f 55/1/2 54/1/2 56/1/2
f 57/1/2 58/1/2 59/1/2
f 59/1/2 58/1/2 60/1/2
f 63/1/3 62/1/3 61/1/3
f 65/1/3 64/1/3 63/1/3
f 67/1/3 66/1/3 65/1/3
f 69/1/3 68/1/3 67/1/3
f 71/1/3 70/1/3 69/1/3
f 73/1/3 72/1/3 71/1/3
f 75/1/3 74/1/3 73/1/3
f 77/1/3 63/1/3 61/1/3
f 77/1/3 76/1/3 75/1/3
f 77/1/3 75/1/3 73/1/3
f 77/1/3 73/1/3 71/1/3
f 77/1/3 71/1/3 69/1/3
f 77/1/3 69/1/3 67/1/3
f 77/1/3 67/1/3 65/1/3
f 77/1/3 65/1/3 63/1/3
f 78/1/3 76/1/3 77/1/3
f 79/1/3 76/1/3 78/1/3
f 81/1/3 80/1/3 79/1/3
f 81/1/3 79/1/3 78/1/3
f 83/1/3 82/1/3 81/1/3
f 85/1/3 81/1/3 78/1/3
f 85/1/3 84/1/3 83/1/3
f 85/1/3 83/1/3 81/1/3
f 86/1/3 84/1/3 85/1/3
f 87/1/3 84/1/3 86/1/3
f 88/1/3 84/1/3 87/1/3
f 89/1/3 87/1/3 86/1/3
f 90/1/3 87/1/3 89/1/3
f 91/1/4 92/1/4 93/1/4
f 93/1/4 94/1/4 95/1/4
f 95/1/4 96/1/4 97/1/4
f 97/1/4 98/1/4 99/1/4
f 99/1/4 100/1/4 101/1/4
f 101/1/4 102/1/4 103/1/4
f 103/1/4 104/1/4 105/1/4
f 91/1/4 93/1/4 107/1/4
f 105/1/4 106/1/4 107/1/4
f 103/1/4 105/1/4 107/1/4
f 101/1/4 103/1/4 107/1/4
f 99/1/4 101/1/4 107/1/4
f 97/1/4 99/1/4 107/1/4
f 95/1/4 97/1/4 107/1/4
f 93/1/4 95/1/4 107/1/4
f 107/1/4 106/1/4 108/1/4
f 108/1/4 106/1/4 109/1/4
f 109/1/4 110/1/4 111/1/4
f 108/1/4 109/1/4 111/1/4
f 111/1/4 112/1/4 113/1/4
f 108/1/4 111/1/4 115/1/4
f 113/1/4 114/1/4 115/1/4
f 111/1/4 113/1/4 115/1/4
f 115/1/4 114/1/4 116/1/4
f 116/1/4 114/1/4 117/1/4
f 117/1/4 114/1/4 118/1/4
f 116/1/4 117/1/4 119/1/4
f 119/1/4 117/1/4 120/1/4
f 123/1/5 122/1/5 121/1/5
f 124/1/5 122/1/5 123/1/5
f 127/1/5 126/1/5 125/1/5
f 128/1/5 126/1/5 127/1/5
f 131/1/5 130/1/5 129/1/5
f 132/1/5 130/1/5 131/1/5
f 133/1/6 134/1/6 135/1/6
f 135/1/6 134/1/6 136/1/6
f 137/1/6 138/1/6 139/1/6
f 139/1/6 138/1/6 140/1/6
f 141/1/6 142/1/6 143/1/6
f 143/1/6 142/1/6 144/1/6
f 145/1/6 146/1/6 147/1/6
f 147/1/6 146/1/6 148/1/6
f 149/1/6 150/1/6 151/1/6
f 151/1/6 150/1/6 152/1/6
f 153/1/6 154/1/6 155/1/6
f 155/1/6 154/1/6 156/1/6
f 157/1/6 158/1/6 159/1/6
f 159/1/6 158/1/6 160/1/6
f 161/1/6 162/1/6 163/1/6
f 163/1/6 162/1/6 164/1/6
f 165/1/6 166/1/6 169/1/6
f 169/1/6 166/1/6 170/1/6
f 167/1/6 168/1/6 171/1/6
f 171/1/6 168/1/6 172/1/6
f 173/1/6 174/1/6 175/1/6
f 175/1/6 174/1/6 176/1/6
f 177/1/6 178/1/6 179/1/6
f 179/1/6 178/1/6 180/1/6
