# MagicaVoxel @ Ephtracy

# material
mtllib 2.5stair.mtl
usemtl palette

# normals
vn -1 0 0
vn 1 0 0
vn 0 0 1
vn 0 0 -1
vn 0 -1 0
vn 0 1 0

# texcoords
vt 0.865234 0.5

# verts
v -29 1 -10
v -29 1 -16
v -29 2 -10
v -29 2 -16
v -28 2 -10
v -28 2 -16
v -28 3 -10
v -28 3 -16
v -27 3 -10
v -27 3 -16
v -27 4 -10
v -27 4 -16
v -26 4 -10
v -26 4 -16
v -26 5 -10
v -26 5 -16
v -25 5 -10
v -25 5 -16
v -25 6 -10
v -25 6 -16
v -24 6 -10
v -24 6 -16
v -24 7 -10
v -24 7 -16
v -23 7 -10
v -23 7 -16
v -23 8 -10
v -23 8 -16
v -22 8 -10
v -22 8 -16
v -22 9 -10
v -22 9 -16
v -21 9 -10
v -21 9 -16
v -21 10 -10
v -21 10 -16
v -20 10 -10
v -20 10 -16
v -20 11 -10
v -20 11 -16
v -19 11 -10
v -19 11 -16
v -19 12 -10
v -19 12 -16
v 0 1 -10
v 0 1 -13
v 0 13 -10
v 0 13 -13
v 18 1 -13
v 18 1 -16
v 18 13 -13
v 18 13 -16
v -21 1 -10
v -21 1 -16
v -21 4 -10
v -21 4 -16
v -18 4 -10
v -18 4 -16
v -18 7 -10
v -18 7 -16
v -18 10 -10
v -18 10 -16
v -18 12 -10
v -18 12 -16
v -15 7 -10
v -15 7 -16
v -15 10 -10
v -15 10 -16
v 6 1 -10
v 6 1 -13
v 6 13 -10
v 6 13 -13
v 24 1 -13
v 24 1 -16
v 24 13 -13
v 24 13 -16
v -29 1 -10
v -29 2 -10
v -28 2 -10
v -28 3 -10
v -27 3 -10
v -27 4 -10
v -26 4 -10
v -26 5 -10
v -25 5 -10
v -25 6 -10
v -24 6 -10
v -24 7 -10
v -23 7 -10
v -23 8 -10
v -22 8 -10
v -22 9 -10
v -21 1 -10
v -21 4 -10
v -21 9 -10
v -21 10 -10
v -20 10 -10
v -20 11 -10
v -19 11 -10
v -19 12 -10
v -18 4 -10
v -18 7 -10
v -18 10 -10
v -18 12 -10
v -15 7 -10
v -15 10 -10
v 0 1 -10
v 0 13 -10
v 6 1 -10
v 6 13 -10
v 18 1 -13
v 18 13 -13
v 24 1 -13
v 24 13 -13
v 0 1 -13
v 0 13 -13
v 6 1 -13
v 6 13 -13
v -29 1 -16
v -29 2 -16
v -28 2 -16
v -28 3 -16
v -27 3 -16
v -27 4 -16
v -26 4 -16
v -26 5 -16
v -25 5 -16
v -25 6 -16
v -24 6 -16
v -24 7 -16
v -23 7 -16
v -23 8 -16
v -22 8 -16
v -22 9 -16
v -21 1 -16
v -21 4 -16
v -21 9 -16
v -21 10 -16
v -20 10 -16
v -20 11 -16
v -19 11 -16
v -19 12 -16
v -18 4 -16
v -18 7 -16
v -18 10 -16
v -18 12 -16
v -15 7 -16
v -15 10 -16
v 18 1 -16
v 18 13 -16
v 24 1 -16
v 24 13 -16
v -29 1 -10
v -21 1 -10
v 0 1 -10
v 6 1 -10
v 0 1 -13
v 6 1 -13
v 18 1 -13
v 24 1 -13
v -29 1 -16
v -21 1 -16
v 18 1 -16
v 24 1 -16
v -21 4 -10
v -18 4 -10
v -21 4 -16
v -18 4 -16
v -18 7 -10
v -15 7 -10
v -18 7 -16
v -15 7 -16
v -29 2 -10
v -28 2 -10
v -29 2 -16
v -28 2 -16
v -28 3 -10
v -27 3 -10
v -28 3 -16
v -27 3 -16
v -27 4 -10
v -26 4 -10
v -27 4 -16
v -26 4 -16
v -26 5 -10
v -25 5 -10
v -26 5 -16
v -25 5 -16
v -25 6 -10
v -24 6 -10
v -25 6 -16
v -24 6 -16
v -24 7 -10
v -23 7 -10
v -24 7 -16
v -23 7 -16
v -23 8 -10
v -22 8 -10
v -23 8 -16
v -22 8 -16
v -22 9 -10
v -21 9 -10
v -22 9 -16
v -21 9 -16
v -21 10 -10
v -20 10 -10
v -18 10 -10
v -15 10 -10
v -21 10 -16
v -20 10 -16
v -18 10 -16
v -15 10 -16
v -20 11 -10
v -19 11 -10
v -20 11 -16
v -19 11 -16
v -19 12 -10
v -18 12 -10
v -19 12 -16
v -18 12 -16
v 0 13 -10
v 6 13 -10
v 0 13 -13
v 6 13 -13
v 18 13 -13
v 24 13 -13
v 18 13 -16
v 24 13 -16

# faces
f 3/1/1 2/1/1 1/1/1
f 4/1/1 2/1/1 3/1/1
f 7/1/1 6/1/1 5/1/1
f 8/1/1 6/1/1 7/1/1
f 11/1/1 10/1/1 9/1/1
f 12/1/1 10/1/1 11/1/1
f 15/1/1 14/1/1 13/1/1
f 16/1/1 14/1/1 15/1/1
f 19/1/1 18/1/1 17/1/1
f 20/1/1 18/1/1 19/1/1
f 23/1/1 22/1/1 21/1/1
f 24/1/1 22/1/1 23/1/1
f 27/1/1 26/1/1 25/1/1
f 28/1/1 26/1/1 27/1/1
f 31/1/1 30/1/1 29/1/1
f 32/1/1 30/1/1 31/1/1
f 35/1/1 34/1/1 33/1/1
f 36/1/1 34/1/1 35/1/1
f 39/1/1 38/1/1 37/1/1
f 40/1/1 38/1/1 39/1/1
f 43/1/1 42/1/1 41/1/1
f 44/1/1 42/1/1 43/1/1
f 47/1/1 46/1/1 45/1/1
f 48/1/1 46/1/1 47/1/1
f 51/1/1 50/1/1 49/1/1
f 52/1/1 50/1/1 51/1/1
f 53/1/2 54/1/2 55/1/2
f 55/1/2 54/1/2 56/1/2
f 57/1/2 58/1/2 59/1/2
f 59/1/2 58/1/2 60/1/2
f 61/1/2 62/1/2 63/1/2
f 63/1/2 62/1/2 64/1/2
f 65/1/2 66/1/2 67/1/2
f 67/1/2 66/1/2 68/1/2
f 69/1/2 70/1/2 71/1/2
f 71/1/2 70/1/2 72/1/2
f 73/1/2 74/1/2 75/1/2
f 75/1/2 74/1/2 76/1/2
f 79/1/3 78/1/3 77/1/3
f 81/1/3 80/1/3 79/1/3
f 83/1/3 82/1/3 81/1/3
f 85/1/3 84/1/3 83/1/3
f 87/1/3 86/1/3 85/1/3
f 89/1/3 88/1/3 87/1/3
f 91/1/3 90/1/3 89/1/3
f 93/1/3 79/1/3 77/1/3
f 93/1/3 92/1/3 91/1/3
f 93/1/3 91/1/3 89/1/3
f 93/1/3 89/1/3 87/1/3
f 93/1/3 87/1/3 85/1/3
f 93/1/3 85/1/3 83/1/3
f 93/1/3 83/1/3 81/1/3
f 93/1/3 81/1/3 79/1/3
f 94/1/3 92/1/3 93/1/3
f 95/1/3 92/1/3 94/1/3
f 97/1/3 96/1/3 95/1/3
f 97/1/3 95/1/3 94/1/3
f 99/1/3 98/1/3 97/1/3
f 101/1/3 97/1/3 94/1/3
f 101/1/3 100/1/3 99/1/3
f 101/1/3 99/1/3 97/1/3
f 102/1/3 100/1/3 101/1/3
f 103/1/3 100/1/3 102/1/3
f 104/1/3 100/1/3 103/1/3
f 105/1/3 103/1/3 102/1/3
f 106/1/3 103/1/3 105/1/3
f 109/1/3 108/1/3 107/1/3
f 110/1/3 108/1/3 109/1/3
f 113/1/3 112/1/3 111/1/3
f 114/1/3 112/1/3 113/1/3
f 115/1/4 116/1/4 117/1/4
f 117/1/4 116/1/4 118/1/4
f 119/1/4 120/1/4 121/1/4
f 121/1/4 122/1/4 123/1/4
f 123/1/4 124/1/4 125/1/4
f 125/1/4 126/1/4 127/1/4
f 127/1/4 128/1/4 129/1/4
f 129/1/4 130/1/4 131/1/4
f 131/1/4 132/1/4 133/1/4
f 119/1/4 121/1/4 135/1/4
f 133/1/4 134/1/4 135/1/4
f 131/1/4 133/1/4 135/1/4
f 129/1/4 131/1/4 135/1/4
f 127/1/4 129/1/4 135/1/4
f 125/1/4 127/1/4 135/1/4
f 123/1/4 125/1/4 135/1/4
f 121/1/4 123/1/4 135/1/4
f 135/1/4 134/1/4 136/1/4
f 136/1/4 134/1/4 137/1/4
f 137/1/4 138/1/4 139/1/4
f 136/1/4 137/1/4 139/1/4
f 139/1/4 140/1/4 141/1/4
f 136/1/4 139/1/4 143/1/4
f 141/1/4 142/1/4 143/1/4
f 139/1/4 141/1/4 143/1/4
f 143/1/4 142/1/4 144/1/4
f 144/1/4 142/1/4 145/1/4
f 145/1/4 142/1/4 146/1/4
f 144/1/4 145/1/4 147/1/4
f 147/1/4 145/1/4 148/1/4
f 149/1/4 150/1/4 151/1/4
f 151/1/4 150/1/4 152/1/4
f 157/1/5 156/1/5 155/1/5
f 158/1/5 156/1/5 157/1/5
f 161/1/5 154/1/5 153/1/5
f 162/1/5 154/1/5 161/1/5
f 163/1/5 160/1/5 159/1/5
f 164/1/5 160/1/5 163/1/5
f 167/1/5 166/1/5 165/1/5
f 168/1/5 166/1/5 167/1/5
f 171/1/5 170/1/5 169/1/5
f 172/1/5 170/1/5 171/1/5
f 173/1/6 174/1/6 175/1/6
f 175/1/6 174/1/6 176/1/6
f 177/1/6 178/1/6 179/1/6
f 179/1/6 178/1/6 180/1/6
f 181/1/6 182/1/6 183/1/6
f 183/1/6 182/1/6 184/1/6
f 185/1/6 186/1/6 187/1/6
f 187/1/6 186/1/6 188/1/6
f 189/1/6 190/1/6 191/1/6
f 191/1/6 190/1/6 192/1/6
f 193/1/6 194/1/6 195/1/6
f 195/1/6 194/1/6 196/1/6
f 197/1/6 198/1/6 199/1/6
f 199/1/6 198/1/6 200/1/6
f 201/1/6 202/1/6 203/1/6
f 203/1/6 202/1/6 204/1/6
f 205/1/6 206/1/6 209/1/6
f 209/1/6 206/1/6 210/1/6
f 207/1/6 208/1/6 211/1/6
f 211/1/6 208/1/6 212/1/6
f 213/1/6 214/1/6 215/1/6
f 215/1/6 214/1/6 216/1/6
f 217/1/6 218/1/6 219/1/6
f 219/1/6 218/1/6 220/1/6
f 221/1/6 222/1/6 223/1/6
f 223/1/6 222/1/6 224/1/6
f 225/1/6 226/1/6 227/1/6
f 227/1/6 226/1/6 228/1/6
