# MagicaVoxel @ Ephtracy

# material
mtllib 2ndfloor.mtl
usemtl palette

# normals
vn -1 0 0
vn 1 0 0
vn 0 0 1
vn 0 0 -1
vn 0 -1 0
vn 0 1 0

# texcoords
vt 0.818359 0.5
vt 0.865234 0.5

# verts
v -18 4 -3
v -18 4 -5
v -18 4 -7
v -18 4 -9
v -18 4 -11
v -18 5 -3
v -18 5 -5
v -18 5 -7
v -18 5 -9
v -18 5 -11
v -16 4 1
v -16 4 -1
v -16 4 -3
v -16 4 -11
v -16 4 -13
v -16 4 -15
v -16 5 1
v -16 5 -1
v -16 5 -3
v -16 5 -11
v -16 5 -13
v -16 5 -15
v -10 4 5
v -10 4 3
v -10 4 1
v -10 5 5
v -10 5 3
v -10 5 1
v -7 4 -7
v -7 4 -9
v -7 5 -7
v -7 5 -9
v -6 4 9
v -6 4 7
v -6 4 -3
v -6 4 -5
v -6 4 -7
v -6 4 -9
v -6 4 -11
v -6 5 9
v -6 5 7
v -6 5 -3
v -6 5 -5
v -6 5 -7
v -6 5 -9
v -6 5 -11
v -4 4 1
v -4 4 -1
v -4 4 -3
v -4 5 1
v -4 5 -1
v -4 5 -3
v 0 4 -11
v 0 4 -13
v 0 5 -11
v 0 5 -13
v 2 4 -13
v 2 4 -15
v 2 5 -13
v 2 5 -15
v 4 4 -15
v 4 4 -17
v 4 4 -19
v 4 5 -15
v 4 5 -17
v 4 5 -19
v -14 4 -1
v -14 4 -3
v -14 4 -11
v -14 4 -13
v -14 5 -1
v -14 5 -3
v -14 5 -11
v -14 5 -13
v -12 4 -3
v -12 4 -5
v -12 4 -7
v -12 4 -9
v -12 4 -11
v -12 5 -3
v -12 5 -5
v -12 5 -7
v -12 5 -9
v -12 5 -11
v -8 4 5
v -8 4 3
v -8 4 1
v -8 4 -1
v -8 4 -13
v -8 4 -15
v -8 5 5
v -8 5 3
v -8 5 1
v -8 5 -1
v -8 5 -13
v -8 5 -15
v -5 4 9
v -5 4 7
v -5 5 9
v -5 5 7
v -2 4 1
v -2 4 -1
v -2 4 -3
v -2 5 1
v -2 5 -1
v -2 5 -3
v 0 4 -3
v 0 4 -5
v 0 4 -7
v 0 4 -9
v 0 5 -3
v 0 5 -5
v 0 5 -7
v 0 5 -9
v 2 4 -9
v 2 4 -11
v 2 5 -9
v 2 5 -11
v 4 4 -11
v 4 4 -13
v 4 5 -11
v 4 5 -13
v 6 4 -13
v 6 4 -15
v 6 5 -13
v 6 5 -15
v 8 4 -15
v 8 4 -17
v 8 5 -15
v 8 5 -17
v 10 4 -17
v 10 4 -19
v 10 5 -17
v 10 5 -19
v -6 4 9
v -6 5 9
v -5 4 9
v -5 5 9
v -10 4 5
v -10 5 5
v -8 4 5
v -8 5 5
v -16 4 1
v -16 5 1
v -14 4 1
v -14 5 1
v -12 4 1
v -12 5 1
v -10 4 1
v -10 5 1
v -4 4 1
v -4 5 1
v -2 4 1
v -2 5 1
v -18 4 -3
v -18 5 -3
v -16 4 -3
v -16 5 -3
v -14 4 -3
v -14 5 -3
v -12 4 -3
v -12 5 -3
v -6 4 -3
v -6 5 -3
v -4 4 -3
v -4 5 -3
v -2 4 -3
v -2 5 -3
v 0 4 -3
v 0 5 -3
v -7 4 -7
v -7 5 -7
v -6 4 -7
v -6 5 -7
v 0 4 -9
v 0 5 -9
v 2 4 -9
v 2 5 -9
v 2 4 -11
v 2 5 -11
v 4 4 -11
v 4 5 -11
v -14 4 -13
v -14 5 -13
v -12 4 -13
v -12 5 -13
v -10 4 -13
v -10 5 -13
v -8 4 -13
v -8 5 -13
v 4 4 -13
v 4 5 -13
v 6 4 -13
v 6 5 -13
v 6 4 -15
v 6 5 -15
v 8 4 -15
v 8 5 -15
v 8 4 -17
v 8 5 -17
v 10 4 -17
v 10 5 -17
v -6 4 7
v -6 5 7
v -5 4 7
v -5 5 7
v -14 4 -1
v -14 5 -1
v -12 4 -1
v -12 5 -1
v -10 4 -1
v -10 5 -1
v -8 4 -1
v -8 5 -1
v -7 4 -9
v -7 5 -9
v -6 4 -9
v -6 5 -9
v -18 4 -11
v -18 5 -11
v -16 4 -11
v -16 5 -11
v -14 4 -11
v -14 5 -11
v -12 4 -11
v -12 5 -11
v -6 4 -11
v -6 5 -11
v -4 4 -11
v -4 5 -11
v -2 4 -11
v -2 5 -11
v 0 4 -11
v 0 5 -11
v 0 4 -13
v 0 5 -13
v 2 4 -13
v 2 5 -13
v -16 4 -15
v -16 5 -15
v -14 4 -15
v -14 5 -15
v -12 4 -15
v -12 5 -15
v -10 4 -15
v -10 5 -15
v -8 4 -15
v -8 5 -15
v 2 4 -15
v 2 5 -15
v 4 4 -15
v 4 5 -15
v 4 4 -19
v 4 5 -19
v 6 4 -19
v 6 5 -19
v 8 4 -19
v 8 5 -19
v 10 4 -19
v 10 5 -19
v -6 4 9
v -5 4 9
v -6 4 7
v -5 4 7
v -10 4 5
v -8 4 5
v -10 4 3
v -8 4 3
v -16 4 1
v -14 4 1
v -12 4 1
v -10 4 1
v -8 4 1
v -4 4 1
v -2 4 1
v -16 4 -1
v -14 4 -1
v -12 4 -1
v -10 4 -1
v -8 4 -1
v -4 4 -1
v -2 4 -1
v -18 4 -3
v -16 4 -3
v -14 4 -3
v -12 4 -3
v -6 4 -3
v -4 4 -3
v -2 4 -3
v 0 4 -3
v -18 4 -5
v -16 4 -5
v -14 4 -5
v -12 4 -5
v -6 4 -5
v -4 4 -5
v -2 4 -5
v 0 4 -5
v -18 4 -7
v -16 4 -7
v -14 4 -7
v -12 4 -7
v -7 4 -7
v -6 4 -7
v -4 4 -7
v -2 4 -7
v 0 4 -7
v -18 4 -9
v -16 4 -9
v -14 4 -9
v -12 4 -9
v -7 4 -9
v -6 4 -9
v -4 4 -9
v -2 4 -9
v 0 4 -9
v 2 4 -9
v -18 4 -11
v -16 4 -11
v -14 4 -11
v -12 4 -11
v -6 4 -11
v -4 4 -11
v -2 4 -11
v 0 4 -11
v 2 4 -11
v 4 4 -11
v -16 4 -13
v -14 4 -13
v -12 4 -13
v -10 4 -13
v -8 4 -13
v 0 4 -13
v 2 4 -13
v 4 4 -13
v 6 4 -13
v -16 4 -15
v -14 4 -15
v -12 4 -15
v -10 4 -15
v -8 4 -15
v 2 4 -15
v 4 4 -15
v 6 4 -15
v 8 4 -15
v 4 4 -17
v 6 4 -17
v 8 4 -17
v 10 4 -17
v 4 4 -19
v 6 4 -19
v 8 4 -19
v 10 4 -19
v -6 5 9
v -5 5 9
v -6 5 7
v -5 5 7
v -10 5 5
v -8 5 5
v -10 5 3
v -8 5 3
v -16 5 1
v -14 5 1
v -12 5 1
v -10 5 1
v -8 5 1
v -4 5 1
v -2 5 1
v -16 5 -1
v -14 5 -1
v -12 5 -1
v -10 5 -1
v -8 5 -1
v -4 5 -1
v -2 5 -1
v -18 5 -3
v -16 5 -3
v -14 5 -3
v -12 5 -3
v -6 5 -3
v -4 5 -3
v -2 5 -3
v 0 5 -3
v -18 5 -5
v -16 5 -5
v -14 5 -5
v -12 5 -5
v -6 5 -5
v -4 5 -5
v -2 5 -5
v 0 5 -5
v -18 5 -7
v -16 5 -7
v -14 5 -7
v -12 5 -7
v -7 5 -7
v -6 5 -7
v -4 5 -7
v -2 5 -7
v 0 5 -7
v -18 5 -9
v -16 5 -9
v -14 5 -9
v -12 5 -9
v -7 5 -9
v -6 5 -9
v -4 5 -9
v -2 5 -9
v 0 5 -9
v 2 5 -9
v -18 5 -11
v -16 5 -11
v -14 5 -11
v -12 5 -11
v -6 5 -11
v -4 5 -11
v -2 5 -11
v 0 5 -11
v 2 5 -11
v 4 5 -11
v -16 5 -13
v -14 5 -13
v -12 5 -13
v -10 5 -13
v -8 5 -13
v 0 5 -13
v 2 5 -13
v 4 5 -13
v 6 5 -13
v -16 5 -15
v -14 5 -15
v -12 5 -15
v -10 5 -15
v -8 5 -15
v 2 5 -15
v 4 5 -15
v 6 5 -15
v 8 5 -15
v 4 5 -17
v 6 5 -17
v 8 5 -17
v 10 5 -17
v 4 5 -19
v 6 5 -19
v 8 5 -19
v 10 5 -19

# faces
f 6/1/1 2/1/1 1/1/1
f 7/2/1 3/2/1 2/2/1
f 7/1/1 2/1/1 6/1/1
f 8/1/1 4/1/1 3/1/1
f 8/2/1 3/2/1 7/2/1
f 9/2/1 5/2/1 4/2/1
f 9/1/1 4/1/1 8/1/1
f 10/2/1 5/2/1 9/2/1
f 17/2/1 12/2/1 11/2/1
f 18/1/1 13/1/1 12/1/1
f 18/2/1 12/2/1 17/2/1
f 19/1/1 13/1/1 18/1/1
f 20/2/1 15/2/1 14/2/1
f 21/1/1 16/1/1 15/1/1
f 21/2/1 15/2/1 20/2/1
f 22/1/1 16/1/1 21/1/1
f 26/1/1 24/1/1 23/1/1
f 27/2/1 25/2/1 24/2/1
f 27/1/1 24/1/1 26/1/1
f 28/2/1 25/2/1 27/2/1
f 31/2/1 30/2/1 29/2/1
f 32/2/1 30/2/1 31/2/1
f 40/2/1 34/2/1 33/2/1
f 41/2/1 34/2/1 40/2/1
f 42/1/1 36/1/1 35/1/1
f 43/2/1 37/2/1 36/2/1
f 43/1/1 36/1/1 42/1/1
f 44/2/1 37/2/1 43/2/1
f 45/2/1 39/2/1 38/2/1
f 46/2/1 39/2/1 45/2/1
f 50/2/1 48/2/1 47/2/1
f 51/1/1 49/1/1 48/1/1
f 51/2/1 48/2/1 50/2/1
f 52/1/1 49/1/1 51/1/1
f 55/2/1 54/2/1 53/2/1
f 56/2/1 54/2/1 55/2/1
f 59/2/1 58/2/1 57/2/1
f 60/2/1 58/2/1 59/2/1
f 64/2/1 62/2/1 61/2/1
f 65/1/1 63/1/1 62/1/1
f 65/2/1 62/2/1 64/2/1
f 66/1/1 63/1/1 65/1/1
f 67/1/2 68/1/2 71/1/2
f 71/1/2 68/1/2 72/1/2
f 69/2/2 70/2/2 73/2/2
f 73/2/2 70/2/2 74/2/2
f 75/1/2 76/1/2 80/1/2
f 76/2/2 77/2/2 81/2/2
f 80/1/2 76/1/2 81/1/2
f 77/1/2 78/1/2 82/1/2
f 81/2/2 77/2/2 82/2/2
f 78/2/2 79/2/2 83/2/2
f 82/1/2 78/1/2 83/1/2
f 83/2/2 79/2/2 84/2/2
f 85/1/2 86/1/2 91/1/2
f 86/2/2 87/2/2 92/2/2
f 91/1/2 86/1/2 92/1/2
f 87/1/2 88/1/2 93/1/2
f 92/2/2 87/2/2 93/2/2
f 93/1/2 88/1/2 94/1/2
f 89/2/2 90/2/2 95/2/2
f 95/2/2 90/2/2 96/2/2
f 97/2/2 98/2/2 99/2/2
f 99/2/2 98/2/2 100/2/2
f 101/2/2 102/2/2 104/2/2
f 102/1/2 103/1/2 105/1/2
f 104/2/2 102/2/2 105/2/2
f 105/1/2 103/1/2 106/1/2
f 107/1/2 108/1/2 111/1/2
f 108/2/2 109/2/2 112/2/2
f 111/1/2 108/1/2 112/1/2
f 109/1/2 110/1/2 113/1/2
f 112/2/2 109/2/2 113/2/2
f 113/1/2 110/1/2 114/1/2
f 115/1/2 116/1/2 117/1/2
f 117/1/2 116/1/2 118/1/2
f 119/1/2 120/1/2 121/1/2
f 121/1/2 120/1/2 122/1/2
f 123/1/2 124/1/2 125/1/2
f 125/1/2 124/1/2 126/1/2
f 127/1/2 128/1/2 129/1/2
f 129/1/2 128/1/2 130/1/2
f 131/1/2 132/1/2 133/1/2
f 133/1/2 132/1/2 134/1/2
f 137/2/3 136/2/3 135/2/3
f 138/2/3 136/2/3 137/2/3
f 141/1/3 140/1/3 139/1/3
f 142/1/3 140/1/3 141/1/3
f 145/2/3 144/2/3 143/2/3
f 146/2/3 144/2/3 145/2/3
f 147/1/3 146/1/3 145/1/3
f 148/1/3 146/1/3 147/1/3
f 149/2/3 148/2/3 147/2/3
f 150/2/3 148/2/3 149/2/3
f 153/2/3 152/2/3 151/2/3
f 154/2/3 152/2/3 153/2/3
f 157/1/3 156/1/3 155/1/3
f 158/1/3 156/1/3 157/1/3
f 161/1/3 160/1/3 159/1/3
f 162/1/3 160/1/3 161/1/3
f 165/1/3 164/1/3 163/1/3
f 166/1/3 164/1/3 165/1/3
f 169/1/3 168/1/3 167/1/3
f 170/1/3 168/1/3 169/1/3
f 173/2/3 172/2/3 171/2/3
f 174/2/3 172/2/3 173/2/3
f 177/1/3 176/1/3 175/1/3
f 178/1/3 176/1/3 177/1/3
f 181/1/3 180/1/3 179/1/3
f 182/1/3 180/1/3 181/1/3
f 185/2/3 184/2/3 183/2/3
f 186/2/3 184/2/3 185/2/3
f 187/1/3 186/1/3 185/1/3
f 188/1/3 186/1/3 187/1/3
f 189/2/3 188/2/3 187/2/3
f 190/2/3 188/2/3 189/2/3
f 193/1/3 192/1/3 191/1/3
f 194/1/3 192/1/3 193/1/3
f 197/1/3 196/1/3 195/1/3
f 198/1/3 196/1/3 197/1/3
f 201/1/3 200/1/3 199/1/3
f 202/1/3 200/1/3 201/1/3
f 203/2/4 204/2/4 205/2/4
f 205/2/4 204/2/4 206/2/4
f 207/1/4 208/1/4 209/1/4
f 209/1/4 208/1/4 210/1/4
f 209/2/4 210/2/4 211/2/4
f 211/2/4 210/2/4 212/2/4
f 211/1/4 212/1/4 213/1/4
f 213/1/4 212/1/4 214/1/4
f 215/2/4 216/2/4 217/2/4
f 217/2/4 216/2/4 218/2/4
f 219/2/4 220/2/4 221/2/4
f 221/2/4 220/2/4 222/2/4
f 223/2/4 224/2/4 225/2/4
f 225/2/4 224/2/4 226/2/4
f 227/2/4 228/2/4 229/2/4
f 229/2/4 228/2/4 230/2/4
f 229/1/4 230/1/4 231/1/4
f 231/1/4 230/1/4 232/1/4
f 231/2/4 232/2/4 233/2/4
f 233/2/4 232/2/4 234/2/4
f 235/2/4 236/2/4 237/2/4
f 237/2/4 236/2/4 238/2/4
f 239/1/4 240/1/4 241/1/4
f 241/1/4 240/1/4 242/1/4
f 241/2/4 242/2/4 243/2/4
f 243/2/4 242/2/4 244/2/4
f 243/1/4 244/1/4 245/1/4
f 245/1/4 244/1/4 246/1/4
f 245/2/4 246/2/4 247/2/4
f 247/2/4 246/2/4 248/2/4
f 249/2/4 250/2/4 251/2/4
f 251/2/4 250/2/4 252/2/4
f 253/1/4 254/1/4 255/1/4
f 255/1/4 254/1/4 256/1/4
f 255/2/4 256/2/4 257/2/4
f 257/2/4 256/2/4 258/2/4
f 257/1/4 258/1/4 259/1/4
f 259/1/4 258/1/4 260/1/4
f 263/2/5 262/2/5 261/2/5
f 264/2/5 262/2/5 263/2/5
f 267/1/5 266/1/5 265/1/5
f 268/1/5 266/1/5 267/1/5
f 272/2/5 268/2/5 267/2/5
f 273/2/5 268/2/5 272/2/5
f 276/2/5 270/2/5 269/2/5
f 277/1/5 271/1/5 270/1/5
f 277/2/5 270/2/5 276/2/5
f 278/2/5 272/2/5 271/2/5
f 278/1/5 271/1/5 277/1/5
f 279/1/5 273/1/5 272/1/5
f 279/2/5 272/2/5 278/2/5
f 280/1/5 273/1/5 279/1/5
f 281/2/5 275/2/5 274/2/5
f 282/2/5 275/2/5 281/2/5
f 284/1/5 277/1/5 276/1/5
f 285/1/5 277/1/5 284/1/5
f 288/1/5 282/1/5 281/1/5
f 289/1/5 282/1/5 288/1/5
f 291/1/5 284/1/5 283/1/5
f 292/2/5 285/2/5 284/2/5
f 292/1/5 284/1/5 291/1/5
f 293/1/5 286/1/5 285/1/5
f 293/2/5 285/2/5 292/2/5
f 294/1/5 286/1/5 293/1/5
f 295/1/5 288/1/5 287/1/5
f 296/2/5 289/2/5 288/2/5
f 296/1/5 288/1/5 295/1/5
f 297/1/5 290/1/5 289/1/5
f 297/2/5 289/2/5 296/2/5
f 298/1/5 290/1/5 297/1/5
f 299/2/5 292/2/5 291/2/5
f 300/1/5 293/1/5 292/1/5
f 300/2/5 292/2/5 299/2/5
f 301/2/5 294/2/5 293/2/5
f 301/1/5 293/1/5 300/1/5
f 302/2/5 294/2/5 301/2/5
f 304/2/5 296/2/5 295/2/5
f 305/1/5 297/1/5 296/1/5
f 305/2/5 296/2/5 304/2/5
f 306/2/5 298/2/5 297/2/5
f 306/1/5 297/1/5 305/1/5
f 307/2/5 298/2/5 306/2/5
f 308/1/5 300/1/5 299/1/5
f 309/2/5 301/2/5 300/2/5
f 309/1/5 300/1/5 308/1/5
f 310/1/5 302/1/5 301/1/5
f 310/2/5 301/2/5 309/2/5
f 311/1/5 302/1/5 310/1/5
f 312/2/5 304/2/5 303/2/5
f 313/1/5 305/1/5 304/1/5
f 313/2/5 304/2/5 312/2/5
f 314/2/5 306/2/5 305/2/5
f 314/1/5 305/1/5 313/1/5
f 315/1/5 307/1/5 306/1/5
f 315/2/5 306/2/5 314/2/5
f 316/1/5 307/1/5 315/1/5
f 318/2/5 309/2/5 308/2/5
f 319/1/5 310/1/5 309/1/5
f 319/2/5 309/2/5 318/2/5
f 320/2/5 311/2/5 310/2/5
f 320/1/5 310/1/5 319/1/5
f 321/2/5 311/2/5 320/2/5
f 322/2/5 314/2/5 313/2/5
f 323/1/5 315/1/5 314/1/5
f 323/2/5 314/2/5 322/2/5
f 324/2/5 316/2/5 315/2/5
f 324/1/5 315/1/5 323/1/5
f 325/1/5 317/1/5 316/1/5
f 325/2/5 316/2/5 324/2/5
f 326/1/5 317/1/5 325/1/5
f 328/2/5 320/2/5 319/2/5
f 329/2/5 320/2/5 328/2/5
f 333/2/5 326/2/5 325/2/5
f 334/1/5 327/1/5 326/1/5
f 334/2/5 326/2/5 333/2/5
f 335/1/5 327/1/5 334/1/5
f 337/1/5 329/1/5 328/1/5
f 338/2/5 330/2/5 329/2/5
f 338/1/5 329/1/5 337/1/5
f 339/1/5 331/1/5 330/1/5
f 339/2/5 330/2/5 338/2/5
f 340/2/5 332/2/5 331/2/5
f 340/1/5 331/1/5 339/1/5
f 341/2/5 332/2/5 340/2/5
f 342/2/5 335/2/5 334/2/5
f 343/1/5 336/1/5 335/1/5
f 343/2/5 335/2/5 342/2/5
f 344/1/5 336/1/5 343/1/5
f 346/2/5 344/2/5 343/2/5
f 347/1/5 345/1/5 344/1/5
f 347/2/5 344/2/5 346/2/5
f 348/1/5 345/1/5 347/1/5
f 350/1/5 347/1/5 346/1/5
f 351/2/5 348/2/5 347/2/5
f 351/1/5 347/1/5 350/1/5
f 352/1/5 349/1/5 348/1/5
f 352/2/5 348/2/5 351/2/5
f 353/1/5 349/1/5 352/1/5
f 354/2/6 355/2/6 356/2/6
f 356/2/6 355/2/6 357/2/6
f 358/1/6 359/1/6 360/1/6
f 360/1/6 359/1/6 361/1/6
f 360/2/6 361/2/6 365/2/6
f 365/2/6 361/2/6 366/2/6
f 362/2/6 363/2/6 369/2/6
f 363/1/6 364/1/6 370/1/6
f 369/2/6 363/2/6 370/2/6
f 364/2/6 365/2/6 371/2/6
f 370/1/6 364/1/6 371/1/6
f 365/1/6 366/1/6 372/1/6
f 371/2/6 365/2/6 372/2/6
f 372/1/6 366/1/6 373/1/6
f 367/2/6 368/2/6 374/2/6
f 374/2/6 368/2/6 375/2/6
f 369/1/6 370/1/6 377/1/6
f 377/1/6 370/1/6 378/1/6
f 374/1/6 375/1/6 381/1/6
f 381/1/6 375/1/6 382/1/6
f 376/1/6 377/1/6 384/1/6
f 377/2/6 378/2/6 385/2/6
f 384/1/6 377/1/6 385/1/6
f 378/1/6 379/1/6 386/1/6
f 385/2/6 378/2/6 386/2/6
f 386/1/6 379/1/6 387/1/6
f 380/1/6 381/1/6 388/1/6
f 381/2/6 382/2/6 389/2/6
f 388/1/6 381/1/6 389/1/6
f 382/1/6 383/1/6 390/1/6
f 389/2/6 382/2/6 390/2/6
f 390/1/6 383/1/6 391/1/6
f 384/2/6 385/2/6 392/2/6
f 385/1/6 386/1/6 393/1/6
f 392/2/6 385/2/6 393/2/6
f 386/2/6 387/2/6 394/2/6
f 393/1/6 386/1/6 394/1/6
f 394/2/6 387/2/6 395/2/6
f 388/2/6 389/2/6 397/2/6
f 389/1/6 390/1/6 398/1/6
f 397/2/6 389/2/6 398/2/6
f 390/2/6 391/2/6 399/2/6
f 398/1/6 390/1/6 399/1/6
f 399/2/6 391/2/6 400/2/6
f 392/1/6 393/1/6 401/1/6
f 393/2/6 394/2/6 402/2/6
f 401/1/6 393/1/6 402/1/6
f 394/1/6 395/1/6 403/1/6
f 402/2/6 394/2/6 403/2/6
f 403/1/6 395/1/6 404/1/6
f 396/2/6 397/2/6 405/2/6
f 397/1/6 398/1/6 406/1/6
f 405/2/6 397/2/6 406/2/6
f 398/2/6 399/2/6 407/2/6
f 406/1/6 398/1/6 407/1/6
f 399/1/6 400/1/6 408/1/6
f 407/2/6 399/2/6 408/2/6
f 408/1/6 400/1/6 409/1/6
f 401/2/6 402/2/6 411/2/6
f 402/1/6 403/1/6 412/1/6
f 411/2/6 402/2/6 412/2/6
f 403/2/6 404/2/6 413/2/6
f 412/1/6 403/1/6 413/1/6
f 413/2/6 404/2/6 414/2/6
f 406/2/6 407/2/6 415/2/6
f 407/1/6 408/1/6 416/1/6
f 415/2/6 407/2/6 416/2/6
f 408/2/6 409/2/6 417/2/6
f 416/1/6 408/1/6 417/1/6
f 409/1/6 410/1/6 418/1/6
f 417/2/6 409/2/6 418/2/6
f 418/1/6 410/1/6 419/1/6
f 412/2/6 413/2/6 421/2/6
f 421/2/6 413/2/6 422/2/6
f 418/2/6 419/2/6 426/2/6
f 419/1/6 420/1/6 427/1/6
f 426/2/6 419/2/6 427/2/6
f 427/1/6 420/1/6 428/1/6
f 421/1/6 422/1/6 430/1/6
f 422/2/6 423/2/6 431/2/6
f 430/1/6 422/1/6 431/1/6
f 423/1/6 424/1/6 432/1/6
f 431/2/6 423/2/6 432/2/6
f 424/2/6 425/2/6 433/2/6
f 432/1/6 424/1/6 433/1/6
f 433/2/6 425/2/6 434/2/6
f 427/2/6 428/2/6 435/2/6
f 428/1/6 429/1/6 436/1/6
f 435/2/6 428/2/6 436/2/6
f 436/1/6 429/1/6 437/1/6
f 436/2/6 437/2/6 439/2/6
f 437/1/6 438/1/6 440/1/6
f 439/2/6 437/2/6 440/2/6
f 440/1/6 438/1/6 441/1/6
f 439/1/6 440/1/6 443/1/6
f 440/2/6 441/2/6 444/2/6
f 443/1/6 440/1/6 444/1/6
f 441/1/6 442/1/6 445/1/6
f 444/2/6 441/2/6 445/2/6
f 445/1/6 442/1/6 446/1/6
