# MagicaVoxel @ Ephtracy

# material
mtllib bow.mtl
usemtl palette

# normals
vn -1 0 0
vn 1 0 0
vn 0 0 1
vn 0 0 -1
vn 0 -1 0
vn 0 1 0

# texcoords
vt 0.787109 0.5
vt 0.798828 0.5
vt 0.845703 0.5

# verts
v -3 0 0.5
v -3 0 -0.5
v -3 2 0.5
v -3 2 -0.5
v -3 26 0.5
v -3 26 -0.5
v -3 28 0.5
v -3 28 -0.5
v -2 2 0.5
v -2 2 -0.5
v -2 4 0.5
v -2 4 -0.5
v -2 24 0.5
v -2 24 -0.5
v -2 26 0.5
v -2 26 -0.5
v -1 4 0.5
v -1 4 -0.5
v -1 5 0.5
v -1 5 -0.5
v -1 7 0.5
v -1 7 -0.5
v -1 20 0.5
v -1 20 -0.5
v -1 23 0.5
v -1 23 -0.5
v -1 24 0.5
v -1 24 -0.5
v 0 7 0.5
v 0 7 -0.5
v 0 8 0.5
v 0 8 -0.5
v 0 9 0.5
v 0 9 -0.5
v 0 10 0.5
v 0 10 -0.5
v 0 17 0.5
v 0 17 -0.5
v 0 19 0.5
v 0 19 -0.5
v 0 20 0.5
v 0 20 -0.5
v 1 10 0.5
v 1 10 -0.5
v 1 11 0.5
v 1 11 -0.5
v 1 12 0.5
v 1 12 -0.5
v 1 13 0.5
v 1 13 -0.5
v 1 14 0.5
v 1 14 -0.5
v 1 15 0.5
v 1 15 -0.5
v 1 16 0.5
v 1 16 -0.5
v 1 17 0.5
v 1 17 -0.5
v -2 0 0.5
v -2 0 -0.5
v -2 1 0.5
v -2 1 -0.5
v -2 27 0.5
v -2 27 -0.5
v -2 28 0.5
v -2 28 -0.5
v -1 1 0.5
v -1 1 -0.5
v -1 3 0.5
v -1 3 -0.5
v -1 25 0.5
v -1 25 -0.5
v -1 27 0.5
v -1 27 -0.5
v 0 3 0.5
v 0 3 -0.5
v 0 4 0.5
v 0 4 -0.5
v 0 5 0.5
v 0 5 -0.5
v 0 6 0.5
v 0 6 -0.5
v 0 21 0.5
v 0 21 -0.5
v 0 23 0.5
v 0 23 -0.5
v 0 24 0.5
v 0 24 -0.5
v 0 25 0.5
v 0 25 -0.5
v 1 6 0.5
v 1 6 -0.5
v 1 7 0.5
v 1 7 -0.5
v 1 8 0.5
v 1 8 -0.5
v 1 9 0.5
v 1 9 -0.5
v 1 18 0.5
v 1 18 -0.5
v 1 19 0.5
v 1 19 -0.5
v 1 20 0.5
v 1 20 -0.5
v 1 21 0.5
v 1 21 -0.5
v 2 9 0.5
v 2 9 -0.5
v 2 11 0.5
v 2 11 -0.5
v 2 12 0.5
v 2 12 -0.5
v 2 13 0.5
v 2 13 -0.5
v 2 14 0.5
v 2 14 -0.5
v 2 15 0.5
v 2 15 -0.5
v 2 16 0.5
v 2 16 -0.5
v 2 18 0.5
v 2 18 -0.5
v 3 11 0.5
v 3 11 -0.5
v 3 12 0.5
v 3 12 -0.5
v 3 15 0.5
v 3 15 -0.5
v 3 16 0.5
v 3 16 -0.5
v -3 0 0.5
v -3 2 0.5
v -3 26 0.5
v -3 28 0.5
v -2 0 0.5
v -2 1 0.5
v -2 2 0.5
v -2 4 0.5
v -2 24 0.5
v -2 26 0.5
v -2 27 0.5
v -2 28 0.5
v -1 1 0.5
v -1 3 0.5
v -1 4 0.5
v -1 5 0.5
v -1 7 0.5
v -1 20 0.5
v -1 23 0.5
v -1 24 0.5
v -1 25 0.5
v -1 27 0.5
v 0 3 0.5
v 0 4 0.5
v 0 5 0.5
v 0 6 0.5
v 0 7 0.5
v 0 8 0.5
v 0 9 0.5
v 0 10 0.5
v 0 17 0.5
v 0 19 0.5
v 0 20 0.5
v 0 21 0.5
v 0 23 0.5
v 0 24 0.5
v 0 25 0.5
v 1 6 0.5
v 1 7 0.5
v 1 8 0.5
v 1 9 0.5
v 1 10 0.5
v 1 11 0.5
v 1 12 0.5
v 1 13 0.5
v 1 14 0.5
v 1 15 0.5
v 1 16 0.5
v 1 17 0.5
v 1 18 0.5
v 1 19 0.5
v 1 20 0.5
v 1 21 0.5
v 2 9 0.5
v 2 11 0.5
v 2 12 0.5
v 2 13 0.5
v 2 14 0.5
v 2 15 0.5
v 2 16 0.5
v 2 18 0.5
v 3 11 0.5
v 3 12 0.5
v 3 15 0.5
v 3 16 0.5
v -3 0 -0.5
v -3 2 -0.5
v -3 26 -0.5
v -3 28 -0.5
v -2 0 -0.5
v -2 1 -0.5
v -2 2 -0.5
v -2 4 -0.5
v -2 24 -0.5
v -2 26 -0.5
v -2 27 -0.5
v -2 28 -0.5
v -1 1 -0.5
v -1 3 -0.5
v -1 4 -0.5
v -1 5 -0.5
v -1 7 -0.5
v -1 20 -0.5
v -1 23 -0.5
v -1 24 -0.5
v -1 25 -0.5
v -1 27 -0.5
v 0 3 -0.5
v 0 4 -0.5
v 0 5 -0.5
v 0 6 -0.5
v 0 7 -0.5
v 0 8 -0.5
v 0 9 -0.5
v 0 10 -0.5
v 0 17 -0.5
v 0 19 -0.5
v 0 20 -0.5
v 0 21 -0.5
v 0 23 -0.5
v 0 24 -0.5
v 0 25 -0.5
v 1 6 -0.5
v 1 7 -0.5
v 1 8 -0.5
v 1 9 -0.5
v 1 10 -0.5
v 1 11 -0.5
v 1 12 -0.5
v 1 13 -0.5
v 1 14 -0.5
v 1 15 -0.5
v 1 16 -0.5
v 1 17 -0.5
v 1 18 -0.5
v 1 19 -0.5
v 1 20 -0.5
v 1 21 -0.5
v 2 9 -0.5
v 2 11 -0.5
v 2 12 -0.5
v 2 13 -0.5
v 2 14 -0.5
v 2 15 -0.5
v 2 16 -0.5
v 2 18 -0.5
v 3 11 -0.5
v 3 12 -0.5
v 3 15 -0.5
v 3 16 -0.5
v -3 0 0.5
v -2 0 0.5
v -3 0 -0.5
v -2 0 -0.5
v -2 1 0.5
v -1 1 0.5
v -2 1 -0.5
v -1 1 -0.5
v -1 3 0.5
v 0 3 0.5
v -1 3 -0.5
v 0 3 -0.5
v 0 6 0.5
v 1 6 0.5
v 0 6 -0.5
v 1 6 -0.5
v 1 9 0.5
v 2 9 0.5
v 1 9 -0.5
v 2 9 -0.5
v 2 11 0.5
v 3 11 0.5
v 2 11 -0.5
v 3 11 -0.5
v 2 15 0.5
v 3 15 0.5
v 2 15 -0.5
v 3 15 -0.5
v 0 17 0.5
v 1 17 0.5
v 0 17 -0.5
v 1 17 -0.5
v -1 20 0.5
v 0 20 0.5
v -1 20 -0.5
v 0 20 -0.5
v -2 24 0.5
v -1 24 0.5
v -2 24 -0.5
v -1 24 -0.5
v -3 26 0.5
v -2 26 0.5
v -3 26 -0.5
v -2 26 -0.5
v -3 2 0.5
v -2 2 0.5
v -3 2 -0.5
v -2 2 -0.5
v -2 4 0.5
v -1 4 0.5
v -2 4 -0.5
v -1 4 -0.5
v -1 7 0.5
v 0 7 0.5
v -1 7 -0.5
v 0 7 -0.5
v 0 10 0.5
v 1 10 0.5
v 0 10 -0.5
v 1 10 -0.5
v 2 12 0.5
v 3 12 0.5
v 2 12 -0.5
v 3 12 -0.5
v 2 16 0.5
v 3 16 0.5
v 2 16 -0.5
v 3 16 -0.5
v 1 18 0.5
v 2 18 0.5
v 1 18 -0.5
v 2 18 -0.5
v 0 21 0.5
v 1 21 0.5
v 0 21 -0.5
v 1 21 -0.5
v -1 25 0.5
v 0 25 0.5
v -1 25 -0.5
v 0 25 -0.5
v -2 27 0.5
v -1 27 0.5
v -2 27 -0.5
v -1 27 -0.5
v -3 28 0.5
v -2 28 0.5
v -3 28 -0.5
v -2 28 -0.5

# faces
f 3/1/1 2/1/1 1/1/1
f 4/1/1 2/1/1 3/1/1
f 7/1/1 6/1/1 5/1/1
f 8/1/1 6/1/1 7/1/1
f 11/1/1 10/1/1 9/1/1
f 12/1/1 10/1/1 11/1/1
f 15/1/1 14/1/1 13/1/1
f 16/1/1 14/1/1 15/1/1
f 19/3/1 18/3/1 17/3/1
f 20/3/1 18/3/1 19/3/1
f 21/2/1 20/2/1 19/2/1
f 22/2/1 20/2/1 21/2/1
f 25/2/1 24/2/1 23/2/1
f 26/2/1 24/2/1 25/2/1
f 27/3/1 26/3/1 25/3/1
f 28/3/1 26/3/1 27/3/1
f 31/1/1 30/1/1 29/1/1
f 32/1/1 30/1/1 31/1/1
f 33/3/1 32/3/1 31/3/1
f 34/3/1 32/3/1 33/3/1
f 35/2/1 34/2/1 33/2/1
f 36/2/1 34/2/1 35/2/1
f 39/2/1 38/2/1 37/2/1
f 40/2/1 38/2/1 39/2/1
f 41/3/1 40/3/1 39/3/1
f 42/3/1 40/3/1 41/3/1
f 45/2/1 44/2/1 43/2/1
f 46/2/1 44/2/1 45/2/1
f 47/1/1 46/1/1 45/1/1
f 48/1/1 46/1/1 47/1/1
f 49/3/1 48/3/1 47/3/1
f 50/3/1 48/3/1 49/3/1
f 51/2/1 50/2/1 49/2/1
f 52/2/1 50/2/1 51/2/1
f 53/3/1 52/3/1 51/3/1
f 54/3/1 52/3/1 53/3/1
f 55/1/1 54/1/1 53/1/1
f 56/1/1 54/1/1 55/1/1
f 57/2/1 56/2/1 55/2/1
f 58/2/1 56/2/1 57/2/1
f 59/1/2 60/1/2 61/1/2
f 61/1/2 60/1/2 62/1/2
f 63/1/2 64/1/2 65/1/2
f 65/1/2 64/1/2 66/1/2
f 67/1/2 68/1/2 69/1/2
f 69/1/2 68/1/2 70/1/2
f 71/1/2 72/1/2 73/1/2
f 73/1/2 72/1/2 74/1/2
f 75/1/2 76/1/2 77/1/2
f 77/1/2 76/1/2 78/1/2
f 77/3/2 78/3/2 79/3/2
f 79/3/2 78/3/2 80/3/2
f 79/2/2 80/2/2 81/2/2
f 81/2/2 80/2/2 82/2/2
f 83/2/2 84/2/2 85/2/2
f 85/2/2 84/2/2 86/2/2
f 85/3/2 86/3/2 87/3/2
f 87/3/2 86/3/2 88/3/2
f 87/1/2 88/1/2 89/1/2
f 89/1/2 88/1/2 90/1/2
f 91/2/2 92/2/2 93/2/2
f 93/2/2 92/2/2 94/2/2
f 93/1/2 94/1/2 95/1/2
f 95/1/2 94/1/2 96/1/2
f 95/3/2 96/3/2 97/3/2
f 97/3/2 96/3/2 98/3/2
f 99/2/2 100/2/2 101/2/2
f 101/2/2 100/2/2 102/2/2
f 101/3/2 102/3/2 103/3/2
f 103/3/2 102/3/2 104/3/2
f 103/1/2 104/1/2 105/1/2
f 105/1/2 104/1/2 106/1/2
f 107/2/2 108/2/2 109/2/2
f 109/2/2 108/2/2 110/2/2
f 111/3/2 112/3/2 113/3/2
f 113/3/2 112/3/2 114/3/2
f 113/2/2 114/2/2 115/2/2
f 115/2/2 114/2/2 116/2/2
f 115/3/2 116/3/2 117/3/2
f 117/3/2 116/3/2 118/3/2
f 119/2/2 120/2/2 121/2/2
f 121/2/2 120/2/2 122/2/2
f 123/1/2 124/1/2 125/1/2
f 125/1/2 124/1/2 126/1/2
f 127/1/2 128/1/2 129/1/2
f 129/1/2 128/1/2 130/1/2
f 135/1/3 132/1/3 131/1/3
f 136/1/3 132/1/3 135/1/3
f 137/1/3 132/1/3 136/1/3
f 140/1/3 134/1/3 133/1/3
f 141/1/3 134/1/3 140/1/3
f 142/1/3 134/1/3 141/1/3
f 143/1/3 138/1/3 137/1/3
f 143/1/3 137/1/3 136/1/3
f 144/1/3 138/1/3 143/1/3
f 145/1/3 138/1/3 144/1/3
f 150/1/3 141/1/3 140/1/3
f 150/1/3 140/1/3 139/1/3
f 151/1/3 141/1/3 150/1/3
f 152/1/3 141/1/3 151/1/3
f 153/1/3 145/1/3 144/1/3
f 154/3/3 146/3/3 145/3/3
f 154/1/3 145/1/3 153/1/3
f 155/2/3 147/2/3 146/2/3
f 155/3/3 146/3/3 154/3/3
f 156/2/3 147/2/3 155/2/3
f 157/2/3 147/2/3 156/2/3
f 163/2/3 149/2/3 148/2/3
f 164/2/3 149/2/3 163/2/3
f 165/3/3 150/3/3 149/3/3
f 165/2/3 149/2/3 164/2/3
f 166/1/3 151/1/3 150/1/3
f 166/3/3 150/3/3 165/3/3
f 167/1/3 151/1/3 166/1/3
f 168/2/3 157/2/3 156/2/3
f 169/1/3 158/1/3 157/1/3
f 169/2/3 157/2/3 168/2/3
f 170/3/3 159/3/3 158/3/3
f 170/1/3 158/1/3 169/1/3
f 171/2/3 160/2/3 159/2/3
f 171/3/3 159/3/3 170/3/3
f 172/2/3 160/2/3 171/2/3
f 179/2/3 162/2/3 161/2/3
f 180/2/3 162/2/3 179/2/3
f 181/3/3 163/3/3 162/3/3
f 181/2/3 162/2/3 180/2/3
f 182/1/3 164/1/3 163/1/3
f 182/3/3 163/3/3 181/3/3
f 183/1/3 164/1/3 182/1/3
f 184/2/3 172/2/3 171/2/3
f 184/2/3 173/2/3 172/2/3
f 185/1/3 174/1/3 173/1/3
f 185/2/3 173/2/3 184/2/3
f 186/3/3 175/3/3 174/3/3
f 186/1/3 174/1/3 185/1/3
f 187/2/3 176/2/3 175/2/3
f 187/3/3 175/3/3 186/3/3
f 188/3/3 177/3/3 176/3/3
f 188/2/3 176/2/3 187/2/3
f 189/1/3 178/1/3 177/1/3
f 189/3/3 177/3/3 188/3/3
f 190/2/3 180/2/3 179/2/3
f 190/1/3 178/1/3 189/1/3
f 190/2/3 179/2/3 178/2/3
f 191/2/3 180/2/3 190/2/3
f 192/1/3 186/1/3 185/1/3
f 193/1/3 186/1/3 192/1/3
f 194/1/3 190/1/3 189/1/3
f 195/1/3 190/1/3 194/1/3
f 196/1/4 197/1/4 200/1/4
f 200/1/4 197/1/4 201/1/4
f 201/1/4 197/1/4 202/1/4
f 198/1/4 199/1/4 205/1/4
f 205/1/4 199/1/4 206/1/4
f 206/1/4 199/1/4 207/1/4
f 202/1/4 203/1/4 208/1/4
f 201/1/4 202/1/4 208/1/4
f 208/1/4 203/1/4 209/1/4
f 209/1/4 203/1/4 210/1/4
f 205/1/4 206/1/4 215/1/4
f 204/1/4 205/1/4 215/1/4
f 215/1/4 206/1/4 216/1/4
f 216/1/4 206/1/4 217/1/4
f 209/1/4 210/1/4 218/1/4
f 210/3/4 211/3/4 219/3/4
f 218/1/4 210/1/4 219/1/4
f 211/2/4 212/2/4 220/2/4
f 219/3/4 211/3/4 220/3/4
f 220/2/4 212/2/4 221/2/4
f 221/2/4 212/2/4 222/2/4
f 213/2/4 214/2/4 228/2/4
f 228/2/4 214/2/4 229/2/4
f 214/3/4 215/3/4 230/3/4
f 229/2/4 214/2/4 230/2/4
f 215/1/4 216/1/4 231/1/4
f 230/3/4 215/3/4 231/3/4
f 231/1/4 216/1/4 232/1/4
f 221/2/4 222/2/4 233/2/4
f 222/1/4 223/1/4 234/1/4
f 233/2/4 222/2/4 234/2/4
f 223/3/4 224/3/4 235/3/4
f 234/1/4 223/1/4 235/1/4
f 224/2/4 225/2/4 236/2/4
f 235/3/4 224/3/4 236/3/4
f 236/2/4 225/2/4 237/2/4
f 226/2/4 227/2/4 244/2/4
f 244/2/4 227/2/4 245/2/4
f 227/3/4 228/3/4 246/3/4
f 245/2/4 227/2/4 246/2/4
f 228/1/4 229/1/4 247/1/4
f 246/3/4 228/3/4 247/3/4
f 247/1/4 229/1/4 248/1/4
f 236/2/4 237/2/4 249/2/4
f 237/2/4 238/2/4 249/2/4
f 238/1/4 239/1/4 250/1/4
f 249/2/4 238/2/4 250/2/4
f 239/3/4 240/3/4 251/3/4
f 250/1/4 239/1/4 251/1/4
f 240/2/4 241/2/4 252/2/4
f 251/3/4 240/3/4 252/3/4
f 241/3/4 242/3/4 253/3/4
f 252/2/4 241/2/4 253/2/4
f 242/1/4 243/1/4 254/1/4
f 253/3/4 242/3/4 254/3/4
f 244/2/4 245/2/4 255/2/4
f 254/1/4 243/1/4 255/1/4
f 243/2/4 244/2/4 255/2/4
f 255/2/4 245/2/4 256/2/4
f 250/1/4 251/1/4 257/1/4
f 257/1/4 251/1/4 258/1/4
f 254/1/4 255/1/4 259/1/4
f 259/1/4 255/1/4 260/1/4
f 263/1/5 262/1/5 261/1/5
f 264/1/5 262/1/5 263/1/5
f 267/1/5 266/1/5 265/1/5
f 268/1/5 266/1/5 267/1/5
f 271/1/5 270/1/5 269/1/5
f 272/1/5 270/1/5 271/1/5
f 275/2/5 274/2/5 273/2/5
f 276/2/5 274/2/5 275/2/5
f 279/2/5 278/2/5 277/2/5
f 280/2/5 278/2/5 279/2/5
f 283/1/5 282/1/5 281/1/5
f 284/1/5 282/1/5 283/1/5
f 287/1/5 286/1/5 285/1/5
f 288/1/5 286/1/5 287/1/5
f 291/2/5 290/2/5 289/2/5
f 292/2/5 290/2/5 291/2/5
f 295/2/5 294/2/5 293/2/5
f 296/2/5 294/2/5 295/2/5
f 299/1/5 298/1/5 297/1/5
f 300/1/5 298/1/5 299/1/5
f 303/1/5 302/1/5 301/1/5
f 304/1/5 302/1/5 303/1/5
f 305/1/6 306/1/6 307/1/6
f 307/1/6 306/1/6 308/1/6
f 309/1/6 310/1/6 311/1/6
f 311/1/6 310/1/6 312/1/6
f 313/2/6 314/2/6 315/2/6
f 315/2/6 314/2/6 316/2/6
f 317/2/6 318/2/6 319/2/6
f 319/2/6 318/2/6 320/2/6
f 321/1/6 322/1/6 323/1/6
f 323/1/6 322/1/6 324/1/6
f 325/1/6 326/1/6 327/1/6
f 327/1/6 326/1/6 328/1/6
f 329/2/6 330/2/6 331/2/6
f 331/2/6 330/2/6 332/2/6
f 333/1/6 334/1/6 335/1/6
f 335/1/6 334/1/6 336/1/6
f 337/1/6 338/1/6 339/1/6
f 339/1/6 338/1/6 340/1/6
f 341/1/6 342/1/6 343/1/6
f 343/1/6 342/1/6 344/1/6
f 345/1/6 346/1/6 347/1/6
f 347/1/6 346/1/6 348/1/6
